<svg xmlns="http://www.w3.org/2000/svg" xmlns:xlink="http://www.w3.org/1999/xlink" xmlns:lucid="lucid" width="2223" height="2333"><g transform="translate(601.5 771.5)" lucid:page-tab-id="0_0"><path d="M500 146a6 6 0 0 1 6-6h148a6 6 0 0 1 6 6v108a6 6 0 0 1-6 6H506a6 6 0 0 1-6-6z" stroke="#5e5e5e" stroke-width="3" fill="#fff"/><use xlink:href="#a" transform="matrix(1,0,0,1,512,152) translate(13.370370370370374 53.77777777777778)"/><path d="M493.2 846a6 6 0 0 1 6-6h148a6 6 0 0 1 6 6v108a6 6 0 0 1-6 6h-148a6 6 0 0 1-6-6z" stroke="#5e5e5e" stroke-width="3" fill="#fff"/><use xlink:href="#b" transform="matrix(1,0,0,1,505.2,852) translate(20.19135802469136 53.77777777777778)"/><path d="M1440 146a6 6 0 0 1 6-6h148a6 6 0 0 1 6 6v108a6 6 0 0 1-6 6h-148a6 6 0 0 1-6-6z" stroke="#5e5e5e" stroke-width="3" fill="#fff"/><use xlink:href="#c" transform="matrix(1,0,0,1,1452,152) translate(43.9567901234568 53.77777777777778)"/><path d="M-343.67 146a6 6 0 0 1 6-6h148a6 6 0 0 1 6 6v108a6 6 0 0 1-6 6h-148a6 6 0 0 1-6-6z" stroke="#5e5e5e" stroke-width="3" fill="#fff"/><use xlink:href="#d" transform="matrix(1,0,0,1,-331.6666658783362,152) translate(10.067901234567906 38.77777777777778)"/><use xlink:href="#e" transform="matrix(1,0,0,1,-331.6666658783362,152) translate(23.030864197530867 65.44444444444446)"/><path d="M500-494a6 6 0 0 1 6-6h148a6 6 0 0 1 6 6v108a6 6 0 0 1-6 6H506a6 6 0 0 1-6-6z" stroke="#5e5e5e" stroke-width="3" fill="#fff"/><use xlink:href="#f" transform="matrix(1,0,0,1,512,-488) translate(45.77777777777778 53.77777777777778)"/><path d="M15.2 143.6a8 8 0 0 1 9.6 0l70.4 52.8a4.5 4.5 0 0 1 0 7.2l-70.4 52.8a8 8 0 0 1-9.6 0l-70.4-52.8a4.5 4.5 0 0 1 0-7.2z" stroke="#5e5e5e" stroke-width="3" fill="#fff"/><use xlink:href="#g" transform="matrix(1,0,0,1,-55,145) translate(50.96179012345679 59.02777777777778)"/><path d="M1155.2 143.6a8 8 0 0 1 9.6 0l70.4 52.8a4.5 4.5 0 0 1 0 7.2l-70.4 52.8a8 8 0 0 1-9.6 0l-70.4-52.8a4.5 4.5 0 0 1 0-7.2z" stroke="#5e5e5e" stroke-width="3" fill="#fff"/><use xlink:href="#h" transform="matrix(1,0,0,1,1085,145) translate(31.825987654320983 59.02777777777778)"/><path d="M575.2 543.6a8 8 0 0 1 9.6 0l70.4 52.8a4.5 4.5 0 0 1 0 7.2l-70.4 52.8a8 8 0 0 1-9.6 0l-70.4-52.8a4.5 4.5 0 0 1 0-7.2z" stroke="#5e5e5e" stroke-width="3" fill="#fff"/><use xlink:href="#i" transform="matrix(1,0,0,1,505,545) translate(50.59141975308642 59.02777777777778)"/><path d="M575.2-176.4a8 8 0 0 1 9.6 0l70.4 52.8a4.5 4.5 0 0 1 0 7.2l-70.4 52.8a8 8 0 0 1-9.6 0l-70.4-52.8a4.5 4.5 0 0 1 0-7.2z" stroke="#5e5e5e" stroke-width="3" fill="#fff"/><use xlink:href="#g" transform="matrix(1,0,0,1,505,-175) translate(50.96179012345679 59.02777777777778)"/><path d="M880-590c22.1 0 40 17.9 40 40s-17.9 40-40 40h-80c-22.1 0-40-17.9-40-40s17.9-40 40-40z" stroke="#5e5e5e" stroke-width="3" fill="#fff"/><use xlink:href="#j" transform="matrix(1,0,0,1,765,-585) translate(30.648148148148145 39.65277777777778)"/><path d="M860-700c22.1 0 40 17.9 40 40s-17.9 40-40 40h-80c-22.1 0-40-17.9-40-40s17.9-40 40-40z" stroke="#5e5e5e" stroke-width="3" fill="#fff"/><use xlink:href="#k" transform="matrix(1,0,0,1,745,-695) translate(66.38888888888889 39.65277777777778)"/><path d="M800-280c22.1 0 40 17.9 40 40s-17.9 40-40 40h-80c-22.1 0-40-17.9-40-40s17.9-40 40-40z" stroke="#5e5e5e" stroke-width="3" fill="#fff"/><use xlink:href="#l" transform="matrix(1,0,0,1,685,-275) translate(52.22722222222222 26.52777777777778)"/><use xlink:href="#m" transform="matrix(1,0,0,1,685,-275) translate(25.684012345679 53.19444444444445)"/><path d="M900-380c22.1 0 40 17.9 40 40s-17.9 40-40 40h-80c-22.1 0-40-17.9-40-40s17.9-40 40-40z" stroke="#5e5e5e" stroke-width="3" fill="#fff"/><use xlink:href="#n" transform="matrix(1,0,0,1,785,-375) translate(31.23456790123457 39.65277777777778)"/><use xlink:href="#o" transform="matrix(1,0,0,1,785,-375) translate(82.96296296296296 39.65277777777778)"/><path d="M900-480c22.1 0 40 17.9 40 40s-17.9 40-40 40h-80c-22.1 0-40-17.9-40-40s17.9-40 40-40z" stroke="#5e5e5e" stroke-width="3" fill="#fff"/><use xlink:href="#p" transform="matrix(1,0,0,1,785,-475) translate(33.08641975308642 39.65277777777778)"/><path d="M656.55-502.1l13.13-54.47 3.6-11.84 3.05-8.74 2.8-7.06 2.7-6 2.6-5.2 2.57-4.68 2.57-4.22 2.6-3.88 2.62-3.6 2.66-3.36 2.75-3.17 2.84-3 2.94-2.87 3.07-2.75 3.2-2.64 3.4-2.56 3.57-2.47 3.82-2.4 4.1-2.35 4.4-2.3 4.8-2.23 3.77-1.58" stroke="#5e5e5e" stroke-width="2" stroke-linejoin="round" fill="none"/><path d="M657.53-501.9l-.28 1.15-.93-.4-.97-.22.24-1zM741.4-644.92l-.93.4-.77-1.86.96-.4z" stroke="#5e5e5e" stroke-width=".05" fill="#5e5e5e"/><path d="M662.5-474.3l1.33-.04 2.2-.17 2.1-.28 2-.36 1.93-.46 1.88-.55 1.85-.64 1.8-.74 1.83-.85 1.83-.96 1.84-1.1 1.9-1.3 1.95-1.46 2.05-1.7 2.18-2.04 2.4-2.46 2.7-3.1 3.3-4.16 4.78-6.8 16.07-24.12 3.3-4.17 2.7-3.1 2.38-2.45 2.2-2.03 2.05-1.7 1.96-1.48 1.9-1.28 1.84-1.12 1.83-.97 1.82-.84 1.8-.75 1.86-.63 1.88-.55 1.94-.46 2-.36 2.1-.27 2.2-.17 1.32-.03" stroke="#5e5e5e" stroke-width="2" stroke-linejoin="round" fill="none"/><path d="M662.55-473.3l-1.05.02v-2l1-.02zM758.5-550.02l.03 1.02h-1.06v-2h1.1z" stroke="#5e5e5e" stroke-width=".05" fill="#5e5e5e"/><path d="M662.5-440h115" stroke="#5e5e5e" stroke-width="2" stroke-linejoin="round" fill="none"/><path d="M662.53-439h-1.03v-2h1.03zM778.5-440.02l.03 1.02h-1.06v-2h1.1z" stroke="#5e5e5e" stroke-width=".05" fill="#5e5e5e"/><path d="M662.5-408.85l2.08.05 2.88.18 2.72.3 2.58.38 2.47.48 2.38.57 2.3.67 2.25.74 2.2.85 2.18.94 2.17 1.03 2.17 1.16 2.2 1.3 2.26 1.47 2.35 1.67 2.48 1.94 2.68 2.28 3.02 2.8 3.67 3.73 5.64 6.23 15.3 17.52 3.67 3.7 3.02 2.82 2.68 2.3 2.48 1.92 2.35 1.67 2.25 1.46 2.2 1.3 2.18 1.17 2.17 1.05 2.18.93 2.2.84 2.24.75 2.3.65 2.37.57 2.47.47 2.58.4 2.72.28 2.88.2 2.08.03" stroke="#5e5e5e" stroke-width="2" stroke-linejoin="round" fill="none"/><path d="M662.55-409.84l-.04 2-1-.03v-2zM778.56-341l-.06.98.03 1.02h-1.06v-2z" stroke="#5e5e5e" stroke-width=".05" fill="#5e5e5e"/><path d="M659.94-379.92l.43.53 1 1.35.97 1.38.9 1.44.85 1.5.8 1.55.75 1.63.72 1.72.66 1.82.62 1.92.57 2.07.5 2.2.45 2.4.38 2.63.28 2.88.2 3.22.05 3.6-.1 4.15-.34 4.86-.65 5.9-1.2 7.66-2.36 11.96-7.64 34.67-.83 5.38-.42 3.84-.2 2.96-.07 2.4.04 2 .1 1.7.14 1.5.2 1.3.2 1.15.24 1.05.26.94.28.87.3.8.3.73.3.68.34.65.34.6.35.56.37.55.38.5.4.5.4.45.44.45.45.42.48.4.5.4.52.4.55.36.6.36.6.33.67.34.72.32.77.3.84.3.9.27 1 .26 1.12.24 1.22.22 1.38.17 1.55.13 1.8.1h.2" stroke="#5e5e5e" stroke-width="2" stroke-linejoin="round" fill="none"/><path d="M660.73-380.53l-1.55 1.26-.63-.77.76-.65.67-.77zM678.56-241l-.06.98.03 1.02h-1.07l.03-2z" stroke="#5e5e5e" stroke-width=".05" fill="#5e5e5e"/><path d="M580-180.5V-360" stroke="#5e5e5e" stroke-width="2" stroke-linejoin="round" fill="none"/><path d="M581-179.44l-1-.06-1 .06v-1.1h2z" stroke="#5e5e5e" stroke-width=".05" fill="#5e5e5e"/><path d="M580-375.26l4.63 14.26h-9.26z" stroke="#5e5e5e" stroke-width="2" fill="#5e5e5e"/><path d="M580-59.25a.75.75 0 0 1 .75.75v197a.75.75 0 0 1-.75.75.75.75 0 0 1-.75-.75v-197a.75.75 0 0 1 .75-.75z" stroke="#5e5e5e" stroke-width="1.5" fill="none"/><path d="M1560-60c22.1 0 40 17.9 40 40s-17.9 40-40 40h-80c-22.1 0-40-17.9-40-40s17.9-40 40-40z" stroke="#5e5e5e" stroke-width="3" fill="#fff"/><use xlink:href="#k" transform="matrix(1,0,0,1,1445,-55) translate(66.38888888888889 39.65277777777778)"/><path d="M1520 137.5v-115" stroke="#5e5e5e" stroke-width="2" stroke-linejoin="round" fill="none"/><path d="M1521 138.5h-2v-1.03h2zM1521 22.53h-2V21.5h2z" stroke="#5e5e5e" stroke-width=".05" fill="#5e5e5e"/><path d="M580 262.5v277" stroke="#5e5e5e" stroke-width="2" stroke-linejoin="round" fill="none"/><path d="M581 262.53h-2v-1.03h2zM581 540.56l-1-.06-1 .06v-1.1h2z" stroke="#5e5e5e" stroke-width=".05" fill="#5e5e5e"/><path d="M579.98 660.5l-.9 48.95-5.84 128.05" stroke="#5e5e5e" stroke-width="2" stroke-linejoin="round" fill="none"/><path d="M580.98 660.55l-2-.04.02-1.06 1 .06 1-.06zM574.2 837.47v1.03h-2v-1.03z" stroke="#5e5e5e" stroke-width=".05" fill="#5e5e5e"/><path d="M820 500c22.1 0 40 17.9 40 40s-17.9 40-40 40h-80c-22.1 0-40-17.9-40-40s17.9-40 40-40z" stroke="#5e5e5e" stroke-width="3" fill="#fff"/><use xlink:href="#q" transform="matrix(1,0,0,1,705,505) translate(47.839506172839506 39.65277777777778)"/><path d="M820 620c22.1 0 40 17.9 40 40s-17.9 40-40 40h-80c-22.1 0-40-17.9-40-40s17.9-40 40-40z" stroke="#5e5e5e" stroke-width="3" fill="#fff"/><use xlink:href="#r" transform="matrix(1,0,0,1,705,625) translate(36.79012345679013 39.65277777777778)"/><use xlink:href="#s" transform="matrix(1,0,0,1,705,625) translate(78.70370370370371 39.65277777777778)"/><path d="M620.9 567.54l2.64-3.32 3.16-3.47 3.1-3 3.08-2.6 3.1-2.32 3.2-2.07 3.3-1.86 3.5-1.68 3.8-1.54 4.24-1.4 4.84-1.26 5.83-1.13 7.6-.98 11.98-.73 13.22-.2" stroke="#5e5e5e" stroke-width="2" stroke-linejoin="round" fill="none"/><path d="M621.68 568.14l-.62.78-1.6-1.2.66-.83zM698.5 539.98l.03 1.02h-1.04l-.04-2h1.1z" stroke="#5e5e5e" stroke-width=".05" fill="#5e5e5e"/><path d="M620.57 632.7l2.6 3.26 3.12 3.42 3.05 2.96 3.03 2.58 3.07 2.3 3.14 2.04 3.26 1.84 3.47 1.67 3.74 1.53 4.15 1.38 4.76 1.26 5.7 1.12 7.4.97 11.5.75 14.92.2" stroke="#5e5e5e" stroke-width="2" stroke-linejoin="round" fill="none"/><path d="M621.36 632.1l-1.56 1.25-.66-.83 1.6-1.2zM698.56 659l-.06.98.03 1.02h-1.07l.03-2z" stroke="#5e5e5e" stroke-width=".05" fill="#5e5e5e"/><path d="M575.2 1183.6a8 8 0 0 1 9.6 0l70.4 52.8a4.5 4.5 0 0 1 0 7.2l-70.4 52.8a8 8 0 0 1-9.6 0l-70.4-52.8a4.5 4.5 0 0 1 0-7.2z" stroke="#5e5e5e" stroke-width="3" fill="#fff"/><use xlink:href="#t" transform="matrix(1,0,0,1,505,1185) translate(42.35067901234568 59.02777777777778)"/><path d="M500 1426a6 6 0 0 1 6-6h148a6 6 0 0 1 6 6v108a6 6 0 0 1-6 6H506a6 6 0 0 1-6-6z" stroke="#5e5e5e" stroke-width="3" fill="#fff"/><use xlink:href="#u" transform="matrix(1,0,0,1,512,1432) translate(-12.771604938271594 52.44444444444444)"/><path d="M400 1.5c22.1 0 40 17.9 40 40s-17.9 40-40 40h-80c-22.1 0-40-17.9-40-40s17.9-40 40-40z" stroke="#5e5e5e" stroke-width="3" fill="#fff"/><use xlink:href="#k" transform="matrix(1,0,0,1,285,6.5) translate(66.38888888888889 39.65277777777778)"/><path d="M840 1.5c22.1 0 40 17.9 40 40s-17.9 40-40 40h-80c-22.1 0-40-17.9-40-40s17.9-40 40-40z" stroke="#5e5e5e" stroke-width="3" fill="#fff"/><use xlink:href="#j" transform="matrix(1,0,0,1,725,6.5) translate(30.648148148148145 39.65277777777778)"/><path d="M270 210c22.1 0 40 17.9 40 40s-17.9 40-40 40h-80c-22.1 0-40-17.9-40-40s17.9-40 40-40z" stroke="#5e5e5e" stroke-width="3" fill="#fff"/><use xlink:href="#v" transform="matrix(1,0,0,1,155,215) translate(41.70253086419753 26.52777777777778)"/><use xlink:href="#w" transform="matrix(1,0,0,1,155,215) translate(83.61611111111111 26.52777777777778)"/><use xlink:href="#x" transform="matrix(1,0,0,1,155,215) translate(20.097592592592584 53.19444444444445)"/><path d="M310 300c22.1 0 40 17.9 40 40s-17.9 40-40 40h-80c-22.1 0-40-17.9-40-40s17.9-40 40-40z" stroke="#5e5e5e" stroke-width="3" fill="#fff"/><use xlink:href="#y" transform="matrix(1,0,0,1,195,305) translate(47.84450617283951 26.52777777777778)"/><use xlink:href="#z" transform="matrix(1,0,0,1,195,305) translate(21.39388888888888 53.19444444444445)"/><path d="M940 210c22.1 0 40 17.9 40 40s-17.9 40-40 40h-80c-22.1 0-40-17.9-40-40s17.9-40 40-40z" stroke="#5e5e5e" stroke-width="3" fill="#fff"/><use xlink:href="#A" transform="matrix(1,0,0,1,825,215) translate(37.40740740740741 39.65277777777778)"/><path d="M900 300c22.1 0 40 17.9 40 40s-17.9 40-40 40h-80c-22.1 0-40-17.9-40-40s17.9-40 40-40z" stroke="#5e5e5e" stroke-width="3" fill="#fff"/><use xlink:href="#B" transform="matrix(1,0,0,1,785,305) translate(36.82098765432098 39.65277777777778)"/><path d="M99.5 200H480" stroke="#5e5e5e" stroke-width="2" stroke-linejoin="round" fill="none"/><path d="M99.54 201H98.4l.1-1-.1-1h1.14z" stroke="#5e5e5e" stroke-width=".05" fill="#5e5e5e"/><path d="M495.26 200L481 204.63v-9.26z" stroke="#5e5e5e" stroke-width="2" fill="#5e5e5e"/><path d="M500-80c22.1 0 40 17.9 40 40S522.1 0 500 0h-80c-22.1 0-40-17.9-40-40s17.9-40 40-40z" fill="#fff"/><path d="M501.5-80c0 .83-.67 1.5-1.5 1.5s-1.5-.67-1.5-1.5.67-1.5 1.5-1.5 1.5.67 1.5 1.5zm12.34 2.02c0 .83-.67 1.5-1.5 1.5s-1.5-.67-1.5-1.5.67-1.5 1.5-1.5 1.5.67 1.5 1.5zM525-72.35c0 .82-.66 1.5-1.5 1.5-.82 0-1.5-.68-1.5-1.5 0-.83.68-1.5 1.5-1.5.84 0 1.5.67 1.5 1.5zm8.8 8.88c0 .83-.67 1.5-1.5 1.5s-1.5-.67-1.5-1.5c0-.82.67-1.5 1.5-1.5s1.5.68 1.5 1.5zm5.74 11.1c0 .84-.67 1.5-1.5 1.5s-1.5-.66-1.5-1.5c0-.82.67-1.5 1.5-1.5s1.5.68 1.5 1.5zM541.5-40c0 .83-.67 1.5-1.5 1.5s-1.5-.67-1.5-1.5.67-1.5 1.5-1.5 1.5.67 1.5 1.5zm-2.02 12.34c0 .83-.67 1.5-1.5 1.5s-1.5-.67-1.5-1.5.67-1.5 1.5-1.5 1.5.67 1.5 1.5zm-5.63 11.17c0 .84-.67 1.5-1.5 1.5-.82 0-1.5-.66-1.5-1.5 0-.82.68-1.5 1.5-1.5.83 0 1.5.68 1.5 1.5zm-8.88 8.8c0 .83-.68 1.5-1.5 1.5-.83 0-1.5-.67-1.5-1.5s.67-1.5 1.5-1.5c.82 0 1.5.67 1.5 1.5zm-11.1 5.74c0 .83-.68 1.5-1.5 1.5-.84 0-1.5-.67-1.5-1.5s.66-1.5 1.5-1.5c.82 0 1.5.67 1.5 1.5zM501.5 0c0 .83-.67 1.5-1.5 1.5s-1.5-.67-1.5-1.5.67-1.5 1.5-1.5 1.5.67 1.5 1.5zm-11.43 0c0 .83-.67 1.5-1.5 1.5s-1.5-.67-1.5-1.5.67-1.5 1.5-1.5 1.5.67 1.5 1.5zm-11.43 0c0 .83-.67 1.5-1.5 1.5s-1.5-.67-1.5-1.5.67-1.5 1.5-1.5 1.5.67 1.5 1.5zM467.2 0c0 .83-.66 1.5-1.5 1.5-.8 0-1.5-.67-1.5-1.5s.7-1.5 1.5-1.5c.84 0 1.5.67 1.5 1.5zm-11.4 0c0 .83-.7 1.5-1.5 1.5-.84 0-1.5-.67-1.5-1.5s.66-1.5 1.5-1.5c.8 0 1.5.67 1.5 1.5zm-11.44 0c0 .83-.67 1.5-1.5 1.5s-1.5-.67-1.5-1.5.67-1.5 1.5-1.5 1.5.67 1.5 1.5zm-11.43 0c0 .83-.67 1.5-1.5 1.5s-1.5-.67-1.5-1.5.67-1.5 1.5-1.5 1.5.67 1.5 1.5zM421.5 0c0 .83-.67 1.5-1.5 1.5s-1.5-.67-1.5-1.5.67-1.5 1.5-1.5 1.5.67 1.5 1.5zm-12.34-2.02c0 .83-.67 1.5-1.5 1.5s-1.5-.67-1.5-1.5.67-1.5 1.5-1.5 1.5.67 1.5 1.5zM398-7.65c0 .83-.68 1.5-1.5 1.5-.83 0-1.5-.67-1.5-1.5 0-.82.67-1.5 1.5-1.5.82 0 1.5.68 1.5 1.5zm-8.8-8.88c0 .82-.67 1.5-1.5 1.5s-1.5-.68-1.5-1.5c0-.83.67-1.5 1.5-1.5s1.5.67 1.5 1.5zm-5.74-11.1c0 .82-.67 1.5-1.5 1.5s-1.5-.68-1.5-1.5c0-.84.67-1.5 1.5-1.5s1.5.66 1.5 1.5zM381.5-40c0 .83-.67 1.5-1.5 1.5s-1.5-.67-1.5-1.5.67-1.5 1.5-1.5 1.5.67 1.5 1.5zm2.02-12.34c0 .83-.67 1.5-1.5 1.5s-1.5-.67-1.5-1.5.67-1.5 1.5-1.5 1.5.67 1.5 1.5zm5.63-11.17c0 .82-.68 1.5-1.5 1.5-.83 0-1.5-.68-1.5-1.5 0-.83.67-1.5 1.5-1.5.82 0 1.5.67 1.5 1.5zm8.88-8.8c0 .83-.67 1.5-1.5 1.5-.82 0-1.5-.67-1.5-1.5s.68-1.5 1.5-1.5c.83 0 1.5.67 1.5 1.5zm11.1-5.74c0 .83-.66 1.5-1.5 1.5-.82 0-1.5-.67-1.5-1.5s.68-1.5 1.5-1.5c.84 0 1.5.67 1.5 1.5zM421.5-80c0 .83-.67 1.5-1.5 1.5s-1.5-.67-1.5-1.5.67-1.5 1.5-1.5 1.5.67 1.5 1.5zm11.43 0c0 .83-.67 1.5-1.5 1.5s-1.5-.67-1.5-1.5.67-1.5 1.5-1.5 1.5.67 1.5 1.5zm11.43 0c0 .83-.67 1.5-1.5 1.5s-1.5-.67-1.5-1.5.67-1.5 1.5-1.5 1.5.67 1.5 1.5zm11.43 0c0 .83-.7 1.5-1.5 1.5-.84 0-1.5-.67-1.5-1.5s.66-1.5 1.5-1.5c.8 0 1.5.67 1.5 1.5zm11.4 0c0 .83-.66 1.5-1.5 1.5-.8 0-1.5-.67-1.5-1.5s.7-1.5 1.5-1.5c.84 0 1.5.67 1.5 1.5zm11.44 0c0 .83-.67 1.5-1.5 1.5s-1.5-.67-1.5-1.5.67-1.5 1.5-1.5 1.5.67 1.5 1.5zm11.43 0c0 .83-.67 1.5-1.5 1.5s-1.5-.67-1.5-1.5.67-1.5 1.5-1.5 1.5.67 1.5 1.5z" fill="#5e5e5e"/><use xlink:href="#C" transform="matrix(1,0,0,1,385,-75) translate(50.308641975308646 39.65277777777778)"/><path d="M740-78.5c22.1 0 40 17.9 40 40s-17.9 40-40 40h-80c-22.1 0-40-17.9-40-40s17.9-40 40-40z" stroke="#5e5e5e" stroke-width="3" fill="#fff"/><use xlink:href="#D" transform="matrix(1,0,0,1,625,-73.5) translate(19.59876543209875 39.65277777777778)"/><path d="M564.94 137.5l-.04-2.08m-.17-8.33l-.07-3.83-.02-.35m-.52-8.3l-.23-3.6-.07-.57m-.86-8.3l-.17-1.55-.38-2.57m-1.27-8.23l-.78-4.1m-1.78-8.13l-.75-3.16-.25-.88m-2.27-8l-1.3-3.98m-2.74-7.86l-1.46-3.9m-3.2-7.7l-1.58-3.78-.03-.06m-3.55-7.53l-1.78-3.76m-3.8-7.4l-1.94-3.7m-3.88-7.38l-1.94-3.68m-4.04-7.3l-1-1.8" stroke="#5e5e5e" stroke-width="2" stroke-linejoin="round" fill="none"/><path d="M565.96 138.5h-2l-.02-1 2-.05zM523.98-4.8l-1.75.98-.5-.87.66-.35 1-.75z" stroke="#5e5e5e" stroke-width=".05" fill="#5e5e5e"/><path d="M594.06 137.5l.3-14.2.74-12.05 1.06-10.17 1.32-9 1.57-8.22 1.83-7.8L603 68.5l2.48-7.62 2.94-7.92 3.6-8.56 4.6-9.76 6.33-12.06L633.13 5l4.55-7.4" stroke="#5e5e5e" stroke-width="2" stroke-linejoin="round" fill="none"/><path d="M595.06 137.5l-.02 1h-2l.02-1.05zM639.05-2.73l-.53.86-1.7-1.04.54-.9z" stroke="#5e5e5e" stroke-width=".05" fill="#5e5e5e"/><path d="M538.6 137.5l-.12-4.3-.4-5.1-.64-4.94-.87-4.8-1.1-4.64-1.3-4.5-1.53-4.4-1.73-4.26-1.93-4.15-2.15-4.03-2.36-3.93-2.56-3.82-2.78-3.7-3-3.6-3.22-3.5-3.44-3.35-3.66-3.23-3.9-3.1-4.13-2.93-4.37-2.77-4.6-2.6-4.84-2.44-5.07-2.23-5.3-2-5.54-1.78-5.75-1.53-5.95-1.26-6.17-.96-6.37-.66-1.38-.1" stroke="#5e5e5e" stroke-width="2" stroke-linejoin="round" fill="none"/><path d="M539.6 138.5h-2v-1l2-.05zM442.5 41.88l-.13 2-1-.07.1-2z" stroke="#5e5e5e" stroke-width=".05" fill="#5e5e5e"/><path d="M630.4 137.5l.14-4.9.45-5.82.73-5.7 1-5.55 1.3-5.42 1.52-5.23 1.76-5.07 2-4.88 2.2-4.67 2.37-4.47 2.55-4.24 2.7-4.03 2.87-3.8 2.97-3.57 3.1-3.35 3.23-3.14 3.32-2.9 3.42-2.7 3.5-2.5 3.6-2.28 3.7-2.08 3.75-1.88 3.85-1.68 3.94-1.48 4.02-1.3 4.14-1.07 4.24-.88 4.36-.68 4.48-.46 4.62-.23 1.24-.02" stroke="#5e5e5e" stroke-width="2" stroke-linejoin="round" fill="none"/><path d="M631.4 137.5v1h-2v-1.05zM718.5 41.48l.03 1.02h-1.04l-.04-2h1.1z" stroke="#5e5e5e" stroke-width=".05" fill="#5e5e5e"/><path d="M497.5 230.36l-22.46.44-17.53 1.1-14.57 1.52-14 2.07-61.86 11.42-14.58 1.53-17.54 1.1-22.46.43" stroke="#5e5e5e" stroke-width="2" stroke-linejoin="round" fill="none"/><path d="M498.5 231.34l-1 .02-.05-2 1.05-.02zM312.53 251h-1.1l.07-.98-.03-1.02h1.06z" stroke="#5e5e5e" stroke-width=".05" fill="#5e5e5e"/><path d="M662.5 228.54l6.07.13 6.93.44 6.9.73 7.07 1.05 7.44 1.42 8.25 1.94 10.22 2.86 47.88 15.24 7.35 1.73 6.48 1.24 6 .9 5.8.6 5.68.37 5.7.12 5.8-.13 5.96-.38 6-.64" stroke="#5e5e5e" stroke-width="2" stroke-linejoin="round" fill="none"/><path d="M662.55 227.54l-.04 2-1-.02v-2zM819.14 257.03l-1.02.13-.25-2 1-.12z" stroke="#5e5e5e" stroke-width=".05" fill="#5e5e5e"/><path d="M730-68.5c16.57 0 30 13.43 30 30s-13.43 30-30 30h-60c-16.57 0-30-13.43-30-30s13.43-30 30-30z" stroke="#5e5e5e" stroke-width="3" fill="#fff"/><use xlink:href="#E" transform="matrix(1,0,0,1,645,-63.5) translate(15.52469135802469 30.27777777777778)"/><path d="M-59.5 200h-104.16" stroke="#5e5e5e" stroke-width="2" stroke-linejoin="round" fill="none"/><path d="M-58.5 200l.1 1h-1.13v-2h1.12z" stroke="#5e5e5e" stroke-width=".05" fill="#5e5e5e"/><path d="M-178.93 200l14.27-4.63v9.26z" stroke="#5e5e5e" stroke-width="2" fill="#5e5e5e"/><path d="M573.22 962.5l1.28 69.98 5.46 147.02" stroke="#5e5e5e" stroke-width="2" stroke-linejoin="round" fill="none"/><path d="M574.22 962.5l-2 .05-.02-1.05h2zM581 1180.56l-1-.06-1 .06v-1.1h2z" stroke="#5e5e5e" stroke-width=".05" fill="#5e5e5e"/><path d="M580 1300.5v99.5" stroke="#5e5e5e" stroke-width="2" stroke-linejoin="round" fill="none"/><path d="M580 1299.5l1-.06v1.1h-2v-1.1z" stroke="#5e5e5e" stroke-width=".05" fill="#5e5e5e"/><path d="M580 1415.26l-4.63-14.26h9.26z" stroke="#5e5e5e" stroke-width="2" fill="#5e5e5e"/><path d="M880 760c22.1 0 40 17.9 40 40s-17.9 40-40 40h-80c-22.1 0-40-17.9-40-40s17.9-40 40-40z" stroke="#5e5e5e" stroke-width="3" fill="#fff"/><use xlink:href="#A" transform="matrix(1,0,0,1,765,765) translate(37.40740740740741 39.65277777777778)"/><path d="M880 883.7c22.1 0 40 17.92 40 40 0 22.1-17.9 40-40 40h-80c-22.1 0-40-17.9-40-40 0-22.08 17.9-40 40-40z" stroke="#5e5e5e" stroke-width="3" fill="#fff"/><use xlink:href="#B" transform="matrix(1,0,0,1,765,888.7079634555361) translate(36.82098765432098 39.65277777777778)"/><path d="M290 760c22.1 0 40 17.9 40 40s-17.9 40-40 40h-80c-22.1 0-40-17.9-40-40s17.9-40 40-40z" stroke="#5e5e5e" stroke-width="3" fill="#fff"/><use xlink:href="#k" transform="matrix(1,0,0,1,175,765) translate(66.38888888888889 39.65277777777778)"/><path d="M880 1440c22.1 0 40 17.9 40 40s-17.9 40-40 40h-80c-22.1 0-40-17.9-40-40s17.9-40 40-40z" stroke="#5e5e5e" stroke-width="3" fill="#fff"/><use xlink:href="#A" transform="matrix(1,0,0,1,765,1445) translate(37.40740740740741 39.65277777777778)"/><path d="M360 1440c22.1 0 40 17.9 40 40s-17.9 40-40 40h-80c-22.1 0-40-17.9-40-40s17.9-40 40-40z" stroke="#5e5e5e" stroke-width="3" fill="#fff"/><use xlink:href="#k" transform="matrix(1,0,0,1,245,1445) translate(66.38888888888889 39.65277777777778)"/><path d="M-280-60c22.1 0 40 17.9 40 40s-17.9 40-40 40h-80c-22.1 0-40-17.9-40-40s17.9-40 40-40z" stroke="#5e5e5e" stroke-width="3" fill="#fff"/><use xlink:href="#k" transform="matrix(1,0,0,1,-395,-55) translate(66.38888888888889 39.65277777777778)"/><path d="M-263.7 137.5l-.05-2.73-.22-3.45-.34-3.2-.46-3.03-.56-2.86-.65-2.73-.75-2.62-.85-2.55-.94-2.5-1.07-2.45-1.2-2.47-1.33-2.48-1.5-2.56-1.76-2.68-2.06-2.9-2.56-3.27-3.5-4.1-20.2-21.9-2.56-3.3-2.07-2.88-1.76-2.68-1.5-2.56-1.35-2.5-1.2-2.45-1.05-2.47-.95-2.5-.85-2.54-.74-2.63-.65-2.74-.55-2.85-.46-3-.34-3.22-.22-3.45-.06-2.73" stroke="#5e5e5e" stroke-width="2" stroke-linejoin="round" fill="none"/><path d="M-262.67 138.5h-2l-.02-1 2-.05zM-319 22.53h-2V21.5h2z" stroke="#5e5e5e" stroke-width=".05" fill="#5e5e5e"/><path d="M662.5 1480h95" stroke="#5e5e5e" stroke-width="2" stroke-linejoin="round" fill="none"/><path d="M662.53 1481h-1.03v-2h1.03zM758.5 1479.98l.03 1.02h-1.06v-2h1.1z" stroke="#5e5e5e" stroke-width=".05" fill="#5e5e5e"/><path d="M497.5 1480h-95" stroke="#5e5e5e" stroke-width="2" stroke-linejoin="round" fill="none"/><path d="M498.5 1481h-1.03v-2h1.03zM402.53 1481h-1.1l.07-.98-.03-1.02h1.06z" stroke="#5e5e5e" stroke-width=".05" fill="#5e5e5e"/><path d="M490.7 872.6l-4.3-.1-4.9-.3-4.54-.47-4.25-.63-4-.76-3.84-.9-3.68-1.03-3.56-1.14-3.5-1.3-3.43-1.45-3.45-1.6-3.48-1.83-3.6-2.07-3.77-2.4-4.12-2.86-4.77-3.63-6.4-5.32-25.4-22.26-4.78-3.63-4.12-2.88-3.78-2.4-3.6-2.07-3.47-1.82-3.44-1.62-3.43-1.44-3.5-1.3-3.55-1.15-3.68-1.02-3.83-.9-4-.76-4.26-.63-4.54-.48-4.9-.3-4.3-.1" stroke="#5e5e5e" stroke-width="2" stroke-linejoin="round" fill="none"/><path d="M491.7 871.63v2l-1.05-.03.04-2zM332.53 799v2h-1.1l.07-.98-.03-1.02z" stroke="#5e5e5e" stroke-width=".05" fill="#5e5e5e"/><path d="M655.7 867.66l1.78-.04 2.6-.2 2.45-.3 2.34-.4 2.24-.48 2.17-.6 2.1-.67 2.07-.78 2.04-.9 2.04-1 2.04-1.13 2.08-1.3 2.14-1.46 2.23-1.68 2.38-2 2.6-2.4 2.98-3.04 3.73-4.2 7.44-9.34 10.37-13.13 3.74-4.2 2.98-3.03 2.6-2.4 2.37-2 2.22-1.7 2.14-1.47 2.08-1.3 2.04-1.12 2.04-1 2.04-.9 2.06-.77 2.1-.67 2.17-.6 2.23-.48 2.34-.4 2.45-.3 2.6-.18 1.78-.05" stroke="#5e5e5e" stroke-width="2" stroke-linejoin="round" fill="none"/><path d="M655.75 868.66l-1.05.02v-2l1-.02zM758.5 799.98l.03 1.02h-1.06v-2h1.1z" stroke="#5e5e5e" stroke-width=".05" fill="#5e5e5e"/><path d="M655.7 923.7h101.8" stroke="#5e5e5e" stroke-width="2" stroke-linejoin="round" fill="none"/><path d="M655.73 924.7h-1.03v-2h1.03zM758.5 923.7l.03 1h-1.06v-2h1.1z" stroke="#5e5e5e" stroke-width=".05" fill="#5e5e5e"/><path d="M290 980c22.1 0 40 17.9 40 40s-17.9 40-40 40h-80c-22.1 0-40-17.9-40-40s17.9-40 40-40z" stroke="#5e5e5e" stroke-width="3" fill="#fff"/><use xlink:href="#D" transform="matrix(1,0,0,1,175,985) translate(19.59876543209875 39.65277777777778)"/><path d="M280 990c16.57 0 30 13.43 30 30s-13.43 30-30 30h-60c-16.57 0-30-13.43-30-30s13.43-30 30-30z" stroke="#5e5e5e" stroke-width="3" fill="#fff"/><use xlink:href="#E" transform="matrix(1,0,0,1,195,995) translate(15.52469135802469 30.27777777777778)"/><path d="M-460-20c22.1 0 40 17.9 40 40s-17.9 40-40 40h-80c-22.1 0-40-17.9-40-40s17.9-40 40-40z" stroke="#5e5e5e" stroke-width="3" fill="#fff"/><use xlink:href="#F" transform="matrix(1,0,0,1,-575,-15) translate(14.542037037037028 26.52777777777778)"/><use xlink:href="#G" transform="matrix(1,0,0,1,-575,-15) translate(15.190185185185188 53.19444444444445)"/><use xlink:href="#H" transform="matrix(1,0,0,1,-575,-15) translate(50.930925925925926 53.19444444444445)"/><path d="M-460 100c22.1 0 40 17.9 40 40s-17.9 40-40 40h-80c-22.1 0-40-17.9-40-40s17.9-40 40-40z" stroke="#5e5e5e" stroke-width="3" fill="#fff"/><use xlink:href="#I" transform="matrix(1,0,0,1,-575,105) translate(3.456790123456784 39.65277777777778)"/><use xlink:href="#J" transform="matrix(1,0,0,1,-575,105) translate(63.95061728395061 39.65277777777778)"/><path d="M-460 220c22.1 0 40 17.9 40 40s-17.9 40-40 40h-80c-22.1 0-40-17.9-40-40s17.9-40 40-40z" stroke="#5e5e5e" stroke-width="3" fill="#fff"/><use xlink:href="#K" transform="matrix(1,0,0,1,-575,225) translate(21.424753086419756 26.52777777777778)"/><use xlink:href="#L" transform="matrix(1,0,0,1,-575,225) translate(103.89388888888888 26.52777777777778)"/><use xlink:href="#M" transform="matrix(1,0,0,1,-575,225) translate(28.12228395061728 53.19444444444445)"/><path d="M-417.5 140.03l1.2.04 2.06.22 1.95.32 1.87.45 1.8.57 1.77.7 1.77.84 1.8 1 1.8 1.2 1.92 1.44 2.02 1.76 2.24 2.23 2.57 2.97 3.27 4.32 18.56 28.13 2.58 2.96 2.23 2.22 2.02 1.77 1.9 1.43 1.83 1.2 1.78 1 1.76.83 1.76.7 1.8.57 1.87.45 1.94.34 2.06.2 1.2.05" stroke="#5e5e5e" stroke-width="2" stroke-linejoin="round" fill="none"/><path d="M-417.44 139.03l-.07 2-1.06-.03.06-.98-.03-1.02zM-345.17 199v2h-1.02v-2z" stroke="#5e5e5e" stroke-width=".05" fill="#5e5e5e"/><path d="M-417.5 259.97l2.25-.08 2.92-.3 2.68-.47 2.5-.6 2.38-.76 2.3-.9 2.28-1.1 2.3-1.28 2.4-1.6 2.64-1.98 3.14-2.74 5.12-5.16 10.65-11.15 3.14-2.74 2.62-2 2.4-1.57 2.3-1.3 2.3-1.07 2.3-.92 2.37-.75 2.5-.6 2.67-.47 2.92-.3 2.23-.08" stroke="#5e5e5e" stroke-width="2" stroke-linejoin="round" fill="none"/><path d="M-417.44 260.96l-1.12.04.06-.98-.03-1.02 1.02-.03zM-345.17 221.05h-1.02v-2h1.03z" stroke="#5e5e5e" stroke-width=".05" fill="#5e5e5e"/><path d="M-417.5 20.04h.08l.53.06.54.08.52.1.52.12.52.15.53.17.53.2.53.22.54.26.56.3.57.32.6.37.6.42.63.48.66.54.7.63.72.7.77.83.82.95.88 1.12.96 1.32 1.05 1.56 1.15 1.9 1.28 2.33 1.45 2.92 1.67 3.76 2 5.04 2.46 7.13 3.42 11.4 19.2 74.14 2.46 7.13 2 5.03 1.66 3.77 1.45 2.92 1.28 2.34 1.15 1.88 1.04 1.57.96 1.32.88 1.12.82.94.78.82.73.72.68.62.66.55.63.48.6.42.6.37.57.33.55.3.54.25.54.23.53.2.53.17.52.14.53.12.52.1.52.08.53.06h.08" stroke="#5e5e5e" stroke-width="2" stroke-linejoin="round" fill="none"/><path d="M-417.45 19.02l-.04 2-1.06-.02.06-.98-.03-1.02zM-345.17 172.64v2h-1.02v-2z" stroke="#5e5e5e" stroke-width=".05" fill="#5e5e5e"/><path d="M430 620c22.1 0 40 17.9 40 40s-17.9 40-40 40h-80c-22.1 0-40-17.9-40-40s17.9-40 40-40z" stroke="#5e5e5e" stroke-width="3" fill="#fff"/><use xlink:href="#N" transform="matrix(1,0,0,1,315,625) translate(3.456790123456784 39.65277777777778)"/><path d="M536.02 630.14l-4.38 5.4-4.5 4.76-4.2 3.82-4.1 3.15-4.04 2.67-4.14 2.3-4.36 1.98-4.7 1.73-5.27 1.48-6.14 1.23-7.57.9-10.12.44" stroke="#5e5e5e" stroke-width="2" stroke-linejoin="round" fill="none"/><path d="M537.45 629.96l-.67.83-1.56-1.27.63-.77zM472.53 661h-1.1l.07-.98-.03-1.02h1.05z" stroke="#5e5e5e" stroke-width=".05" fill="#5e5e5e"/><path d="M400 480c22.1 0 40 17.9 40 40s-17.9 40-40 40h-80c-22.1 0-40-17.9-40-40s17.9-40 40-40z" stroke="#5e5e5e" stroke-width="3" fill="#fff"/><use xlink:href="#O" transform="matrix(1,0,0,1,285,485) translate(34.9124074074074 26.52777777777778)"/><use xlink:href="#J" transform="matrix(1,0,0,1,285,485) translate(33.7087037037037 53.19444444444445)"/><path d="M442.5 520.02l11.77.28 9.66.7 7.86.96 6.7 1.15 5.87 1.33 5.3 1.46 4.86 1.6 4.54 1.74 4.28 1.9 4.1 2.05 3.98 2.24 3.9 2.46 3.84 2.7 3.86 3 3.9 3.35 3.97 3.78 4.1 4.3 4.32 5 3.64 4.62" stroke="#5e5e5e" stroke-width="2" stroke-linejoin="round" fill="none"/><path d="M442.55 519.02l-.05 2-1.06-.02.06-.98-.03-1.02zM544.38 564.84l-1.6 1.2-.62-.8 1.57-1.22z" stroke="#5e5e5e" stroke-width=".05" fill="#5e5e5e"/><path d="M420 100c22.1 0 40 17.9 40 40s-17.9 40-40 40h-80c-22.1 0-40-17.9-40-40s17.9-40 40-40z" stroke="#5e5e5e" stroke-width="3" fill="#fff"/><use xlink:href="#P" transform="matrix(1,0,0,1,305,105) translate(41.666666666666664 39.65277777777778)"/><path d="M497.5 158.94l-2.25-.15-2.7-.56-2.44-.86-2.37-1.22-2.66-1.86-12.8-11.46-2.38-1.22-2.44-.86-2.7-.55-2.26-.13" stroke="#5e5e5e" stroke-width="2" stroke-linejoin="round" fill="none"/><path d="M498.5 158v2l-1.1-.07.14-2zM462.07 139v2h-.63l.06-.98-.03-1.02z" stroke="#5e5e5e" stroke-width=".05" fill="#5e5e5e"/><path d="M840 100c22.1 0 40 17.9 40 40s-17.9 40-40 40h-80c-22.1 0-40-17.9-40-40s17.9-40 40-40z" stroke="#5e5e5e" stroke-width="3" fill="#fff"/><use xlink:href="#Q" transform="matrix(1,0,0,1,725,105) translate(28.148148148148145 39.65277777777778)"/><path d="M662.5 160.96l3.57-.15 3.8-.5 3.3-.73 3.05-.96 2.96-1.23 3.18-1.67 4.44-2.88 10.84-7.52 3.18-1.67 2.96-1.24 3.04-.97 3.3-.74 3.8-.5 3.58-.16" stroke="#5e5e5e" stroke-width="2" stroke-linejoin="round" fill="none"/><path d="M662.57 161.96l-1.07.04v-2l.98-.04zM718.5 139.98l.03 1.02h-.9v-2h.93z" stroke="#5e5e5e" stroke-width=".05" fill="#5e5e5e"/><path d="M662.5 200h418" stroke="#5e5e5e" stroke-width="2" stroke-linejoin="round" fill="none"/><path d="M662.53 201h-1.03v-2h1.03zM1081.5 200l.1 1h-1.13v-2h1.12z" stroke="#5e5e5e" stroke-width=".05" fill="#5e5e5e"/><path d="M1239.5 200h198" stroke="#5e5e5e" stroke-width="2" stroke-linejoin="round" fill="none"/><path d="M1239.54 201h-1.13l.1-1-.1-1h1.13zM1438.5 201h-1.03v-2h1.03z" stroke="#5e5e5e" stroke-width=".05" fill="#5e5e5e"/><path d="M1560 380c22.1 0 40 17.9 40 40s-17.9 40-40 40h-80c-22.1 0-40-17.9-40-40s17.9-40 40-40z" stroke="#5e5e5e" stroke-width="3" fill="#fff"/><use xlink:href="#R" transform="matrix(1,0,0,1,1445,385) translate(57.12962962962963 39.65277777777778)"/><path d="M1520 262.5v115" stroke="#5e5e5e" stroke-width="2" stroke-linejoin="round" fill="none"/><path d="M1521 262.53h-2v-1.03h2zM1521 378.5h-2v-1.03h2z" stroke="#5e5e5e" stroke-width=".05" fill="#5e5e5e"/><path d="M1060-40c22.1 0 40 17.9 40 40s-17.9 40-40 40h-80c-22.1 0-40-17.9-40-40s17.9-40 40-40z" stroke="#5e5e5e" stroke-width="3" fill="#fff"/><use xlink:href="#S" transform="matrix(1,0,0,1,945,-35) translate(20.802469135802454 39.65277777777778)"/><path d="M1200 360c22.1 0 40 17.9 40 40s-17.9 40-40 40h-80c-22.1 0-40-17.9-40-40s17.9-40 40-40z" stroke="#5e5e5e" stroke-width="3" fill="#fff"/><use xlink:href="#q" transform="matrix(1,0,0,1,1085,365) translate(47.839506172839506 39.65277777777778)"/><path d="M1160 260.5v97" stroke="#5e5e5e" stroke-width="2" stroke-linejoin="round" fill="none"/><path d="M1160 259.5l1-.06v1.1h-2v-1.1zM1161 358.5h-2v-1.03h2z" stroke="#5e5e5e" stroke-width=".05" fill="#5e5e5e"/><path d="M1310-40c22.1 0 40 17.9 40 40s-17.9 40-40 40h-80c-22.1 0-40-17.9-40-40s17.9-40 40-40z" stroke="#5e5e5e" stroke-width="3" fill="#fff"/><use xlink:href="#T" transform="matrix(1,0,0,1,1195,-35) translate(18.919753086419746 39.65277777777778)"/><path d="M1119.2 167.48l-3.27-4.16-4.3-5.04-4.9-5.26-5.74-5.68-7.22-6.56-11.23-9.36-29.06-23.33-5.54-5.03-4.1-4.06-3.3-3.55-2.78-3.25-2.4-3.04-2.08-2.9-1.85-2.83-1.65-2.77-1.5-2.74-1.33-2.73-1.2-2.77-1.1-2.8-.97-2.85-.87-2.94-.76-3.04-.66-3.17-.53-3.33-.42-3.52-.3-3.74-.14-4v-.54" stroke="#5e5e5e" stroke-width="2" stroke-linejoin="round" fill="none"/><path d="M1120.6 167.67l-1.6 1.2-.62-.8 1.58-1.22zM1021 42.52h-2V41.5h2z" stroke="#5e5e5e" stroke-width=".05" fill="#5e5e5e"/><path d="M1201.97 168.35l11.68-14.86 29.44-35.98 5.12-7.13 3.8-5.77 3.02-5.06 2.53-4.66 2.16-4.4 1.88-4.3 1.65-4.2 1.44-4.23 1.25-4.27 1.1-4.38.93-4.52.78-4.74.6-5 .42-5.36.2-5.78V42.5" stroke="#5e5e5e" stroke-width="2" stroke-linejoin="round" fill="none"/><path d="M1202.77 168.95l-.62.8-1.6-1.2.65-.84zM1271 42.53h-2V41.5h2z" stroke="#5e5e5e" stroke-width=".05" fill="#5e5e5e"/><path d="M661.55 257.88l6.2 2.4 7.6 2.6 8.52 2.5 10.68 2.67 45.9 9.75 6.2 1.82 5.15 1.76 4.54 1.76 4.15 1.82 3.87 1.9 3.7 2 3.56 2.12 3.5 2.3 3.44 2.46 3.44 2.7 3.48 2.96 3.54 3.27 3.2 3.22" stroke="#5e5e5e" stroke-width="2" stroke-linejoin="round" fill="none"/><path d="M661.94 256.96l-.73 1.86-1.1-.44.6-.97.32-.8zM793.66 307.95l-.25.18-1.22 1.17-.7-.75 1.45-1.37z" stroke="#5e5e5e" stroke-width=".05" fill="#5e5e5e"/><path d="M720 320c22.1 0 40 17.9 40 40s-17.9 40-40 40h-80c-22.1 0-40-17.9-40-40s17.9-40 40-40z" stroke="#5e5e5e" stroke-width="3" fill="#fff"/><use xlink:href="#U" transform="matrix(1,0,0,1,605,325) translate(43.580246913580254 39.65277777777778)"/><path d="M633.65 262.5l.08 1.82.33 2.52.5 2.32.7 2.18.88 2.1 1.1 2.1 1.4 2.17 1.8 2.35 2.58 2.77 4.84 4.34 11.83 10.02 2.56 2.77 1.82 2.34 1.4 2.16 1.1 2.1.87 2.1.7 2.18.5 2.32.33 2.52.08 1.82" stroke="#5e5e5e" stroke-width="2" stroke-linejoin="round" fill="none"/><path d="M634.65 262.48l-2 .1-.05-1.08h2zM670.1 318.5h-2v-.88h2z" stroke="#5e5e5e" stroke-width=".05" fill="#5e5e5e"/><path d="M290 860c22.1 0 40 17.9 40 40s-17.9 40-40 40h-80c-22.1 0-40-17.9-40-40s17.9-40 40-40z" stroke="#5e5e5e" stroke-width="3" fill="#fff"/><use xlink:href="#U" transform="matrix(1,0,0,1,175,865) translate(43.580246913580254 39.65277777777778)"/><path d="M490.7 900H332.5" stroke="#5e5e5e" stroke-width="2" stroke-linejoin="round" fill="none"/><path d="M491.7 901h-1.03v-2h1.03zM332.53 901h-1.1l.07-.98-.03-1.02h1.06z" stroke="#5e5e5e" stroke-width=".05" fill="#5e5e5e"/><path d="M-400 340c22.1 0 40 17.9 40 40s-17.9 40-40 40h-80c-22.1 0-40-17.9-40-40s17.9-40 40-40z" stroke="#5e5e5e" stroke-width="3" fill="#fff"/><use xlink:href="#V" transform="matrix(1,0,0,1,-515,345) translate(26.918580246913578 26.52777777777778)"/><use xlink:href="#W" transform="matrix(1,0,0,1,-515,345) translate(13.338333333333333 53.19444444444445)"/><path d="M-220 360c22.1 0 40 17.9 40 40s-17.9 40-40 40h-80c-22.1 0-40-17.9-40-40s17.9-40 40-40z" stroke="#5e5e5e" stroke-width="3" fill="#fff"/><use xlink:href="#X" transform="matrix(1,0,0,1,-335,365) translate(32.504999999999995 26.52777777777778)"/><use xlink:href="#J" transform="matrix(1,0,0,1,-335,365) translate(33.7087037037037 53.19444444444445)"/><path d="M-291.7 262.5l-.03 1.33-.17 2.13-.26 1.95-.34 1.83-.4 1.7-.5 1.6-.54 1.54-.62 1.47-.68 1.4-.76 1.4-.84 1.34-.93 1.33-1.03 1.33-1.15 1.32-1.3 1.34-1.46 1.35-1.7 1.4-1.94 1.46-2.33 1.57-2.84 1.7-3.67 1.9-5.16 2.37-10.45 4.1-21.64 8.15-5.82 2.66-4.27 2.24-3.42 2.03-2.84 1.9-2.44 1.82-2.13 1.78-1.9 1.76-1.68 1.74-1.54 1.75-1.38 1.77-1.27 1.8-1.15 1.87-1.06 1.92-.97 2-.88 2.1-.5 1.38" stroke="#5e5e5e" stroke-width="2" stroke-linejoin="round" fill="none"/><path d="M-290.7 262.55l-2-.05.03-1h2zM-384.72 340.32l-.3.97-1.92-.62.32-.98z" stroke="#5e5e5e" stroke-width=".05" fill="#5e5e5e"/><path d="M-245.03 262.5l-.23 9.45-.62 8.1-.87 6.77-1.13 6.17-1.53 6.46-7.72 27.55-1.13 6.18-.87 6.78-.62 8.1-.24 9.44" stroke="#5e5e5e" stroke-width="2" stroke-linejoin="round" fill="none"/><path d="M-244.03 262.55l-2-.05.03-1h2zM-259 357.47v1.03h-2v-1.03z" stroke="#5e5e5e" stroke-width=".05" fill="#5e5e5e"/><path d="M840 1040c22.1 0 40 17.9 40 40s-17.9 40-40 40h-80c-22.1 0-40-17.9-40-40s17.9-40 40-40z" stroke="#5e5e5e" stroke-width="3" fill="#fff"/><use xlink:href="#y" transform="matrix(1,0,0,1,725,1045) translate(47.84450617283951 26.52777777777778)"/><use xlink:href="#z" transform="matrix(1,0,0,1,725,1045) translate(21.39388888888888 53.19444444444445)"/><path d="M655.7 950.84l.45.05.47.06.47.08.45.1.47.14.47.16.47.17.48.22.5.23.5.26.5.3.52.34.54.37.58.44.6.5.6.54.65.64.7.73.72.85.78 1 .85 1.16.93 1.4 1.03 1.68 1.14 2.08 1.3 2.6 1.48 3.36 1.78 4.5 2.24 6.47 3.2 10.65 15.26 57.65 2.24 6.46 1.78 4.52 1.5 3.36 1.28 2.6 1.14 2.07 1.02 1.7.92 1.38.85 1.17.78 1 .73.85.7.73.64.63.6.57.6.48.56.43.55.38.52.33.5.3.5.25.5.23.48.2.48.18.48.15.46.14.47.1.48.1.47.07.45.06" stroke="#5e5e5e" stroke-width="2" stroke-linejoin="round" fill="none"/><path d="M655.75 949.82l-.04 2-1-.03v-2zM718.56 1079l-.06.98.03 1.02h-1v-2z" stroke="#5e5e5e" stroke-width=".05" fill="#5e5e5e"/><path d="M440 1060c22.1 0 40 17.9 40 40s-17.9 40-40 40h-80c-22.1 0-40-17.9-40-40s17.9-40 40-40z" fill="#fff"/><path d="M441.5 1060c0 .83-.67 1.5-1.5 1.5s-1.5-.67-1.5-1.5.67-1.5 1.5-1.5 1.5.67 1.5 1.5zm12.34 2.02c0 .83-.67 1.5-1.5 1.5s-1.5-.67-1.5-1.5.67-1.5 1.5-1.5 1.5.67 1.5 1.5zm11.17 5.63c0 .82-.67 1.5-1.5 1.5-.82 0-1.5-.68-1.5-1.5 0-.83.68-1.5 1.5-1.5.83 0 1.5.67 1.5 1.5zm8.8 8.88c0 .83-.67 1.5-1.5 1.5s-1.5-.67-1.5-1.5c0-.82.67-1.5 1.5-1.5s1.5.68 1.5 1.5zm5.74 11.1c0 .84-.67 1.5-1.5 1.5s-1.5-.66-1.5-1.5c0-.82.67-1.5 1.5-1.5s1.5.68 1.5 1.5zm1.96 12.37c0 .83-.67 1.5-1.5 1.5s-1.5-.67-1.5-1.5.67-1.5 1.5-1.5 1.5.67 1.5 1.5zm-2.02 12.34c0 .83-.67 1.5-1.5 1.5s-1.5-.67-1.5-1.5.67-1.5 1.5-1.5 1.5.67 1.5 1.5zm-5.63 11.17c0 .84-.67 1.5-1.5 1.5-.82 0-1.5-.66-1.5-1.5 0-.82.68-1.5 1.5-1.5.83 0 1.5.68 1.5 1.5zm-8.88 8.8c0 .83-.68 1.5-1.5 1.5-.83 0-1.5-.67-1.5-1.5s.67-1.5 1.5-1.5c.82 0 1.5.67 1.5 1.5zm-11.1 5.74c0 .83-.68 1.5-1.5 1.5-.84 0-1.5-.67-1.5-1.5s.66-1.5 1.5-1.5c.82 0 1.5.67 1.5 1.5zM441.5 1140c0 .83-.67 1.5-1.5 1.5s-1.5-.67-1.5-1.5.67-1.5 1.5-1.5 1.5.67 1.5 1.5zm-11.43 0c0 .83-.67 1.5-1.5 1.5s-1.5-.67-1.5-1.5.67-1.5 1.5-1.5 1.5.67 1.5 1.5zm-11.43 0c0 .83-.67 1.5-1.5 1.5s-1.5-.67-1.5-1.5.67-1.5 1.5-1.5 1.5.67 1.5 1.5zm-11.43 0c0 .83-.66 1.5-1.5 1.5-.8 0-1.5-.67-1.5-1.5s.7-1.5 1.5-1.5c.84 0 1.5.67 1.5 1.5zm-11.4 0c0 .83-.7 1.5-1.5 1.5-.84 0-1.5-.67-1.5-1.5s.66-1.5 1.5-1.5c.8 0 1.5.67 1.5 1.5zm-11.44 0c0 .83-.67 1.5-1.5 1.5s-1.5-.67-1.5-1.5.67-1.5 1.5-1.5 1.5.67 1.5 1.5zm-11.43 0c0 .83-.67 1.5-1.5 1.5s-1.5-.67-1.5-1.5.67-1.5 1.5-1.5 1.5.67 1.5 1.5zm-11.43 0c0 .83-.67 1.5-1.5 1.5s-1.5-.67-1.5-1.5.67-1.5 1.5-1.5 1.5.67 1.5 1.5zm-12.34-2.02c0 .83-.67 1.5-1.5 1.5s-1.5-.67-1.5-1.5.67-1.5 1.5-1.5 1.5.67 1.5 1.5zm-11.17-5.63c0 .83-.68 1.5-1.5 1.5-.83 0-1.5-.67-1.5-1.5 0-.82.67-1.5 1.5-1.5.82 0 1.5.68 1.5 1.5zm-8.8-8.88c0 .82-.67 1.5-1.5 1.5s-1.5-.68-1.5-1.5c0-.83.67-1.5 1.5-1.5s1.5.67 1.5 1.5zm-5.74-11.1c0 .82-.67 1.5-1.5 1.5s-1.5-.68-1.5-1.5c0-.84.67-1.5 1.5-1.5s1.5.66 1.5 1.5zM321.5 1100c0 .83-.67 1.5-1.5 1.5s-1.5-.67-1.5-1.5.67-1.5 1.5-1.5 1.5.67 1.5 1.5zm2.02-12.34c0 .83-.67 1.5-1.5 1.5s-1.5-.67-1.5-1.5.67-1.5 1.5-1.5 1.5.67 1.5 1.5zm5.63-11.17c0 .82-.68 1.5-1.5 1.5-.83 0-1.5-.68-1.5-1.5 0-.84.67-1.5 1.5-1.5.82 0 1.5.66 1.5 1.5zm8.88-8.8c0 .83-.67 1.5-1.5 1.5-.82 0-1.5-.67-1.5-1.5s.68-1.5 1.5-1.5c.83 0 1.5.67 1.5 1.5zm11.1-5.74c0 .83-.66 1.5-1.5 1.5-.82 0-1.5-.67-1.5-1.5s.68-1.5 1.5-1.5c.84 0 1.5.67 1.5 1.5zm12.37-1.96c0 .83-.67 1.5-1.5 1.5s-1.5-.67-1.5-1.5.67-1.5 1.5-1.5 1.5.67 1.5 1.5zm11.43 0c0 .83-.67 1.5-1.5 1.5s-1.5-.67-1.5-1.5.67-1.5 1.5-1.5 1.5.67 1.5 1.5zm11.43 0c0 .83-.67 1.5-1.5 1.5s-1.5-.67-1.5-1.5.67-1.5 1.5-1.5 1.5.67 1.5 1.5zm11.43 0c0 .83-.7 1.5-1.5 1.5-.84 0-1.5-.67-1.5-1.5s.66-1.5 1.5-1.5c.8 0 1.5.67 1.5 1.5zm11.4 0c0 .83-.66 1.5-1.5 1.5-.8 0-1.5-.67-1.5-1.5s.7-1.5 1.5-1.5c.84 0 1.5.67 1.5 1.5zm11.44 0c0 .83-.67 1.5-1.5 1.5s-1.5-.67-1.5-1.5.67-1.5 1.5-1.5 1.5.67 1.5 1.5zm11.43 0c0 .83-.67 1.5-1.5 1.5s-1.5-.67-1.5-1.5.67-1.5 1.5-1.5 1.5.67 1.5 1.5z" fill="#5e5e5e"/><use xlink:href="#C" transform="matrix(1,0,0,1,325,1065) translate(50.308641975308646 39.65277777777778)"/><path d="M525.08 962.5c0 .55-.44 1-1 1-.55 0-1-.45-1-1s.45-1 1-1c.56 0 1 .45 1 1zm-1.5 7.8c0 .55-.45 1-1 1s-1-.45-1-1 .45-1 1-1 1 .45 1 1zm-3.74 7c0 .56-.45 1-1 1s-1-.44-1-1c0-.54.45-1 1-1s1 .46 1 1zm-5.32 5.94c0 .55-.44 1-1 1-.55 0-1-.45-1-1s.45-1 1-1c.56 0 1 .45 1 1zm-6.22 4.98c0 .55-.44 1-1 1-.55 0-1-.45-1-1s.45-1 1-1c.56 0 1 .45 1 1zm-6.73 4.26c0 .55-.45 1-1 1s-1-.45-1-1 .45-1 1-1 1 .45 1 1zm-7.05 3.72c0 .55-.45 1-1 1-.56 0-1-.45-1-1s.44-1 1-1c.55 0 1 .45 1 1zm-7.23 3.37c0 .55-.46 1-1 1-.56 0-1-.45-1-1 0-.56.44-1 1-1 .54 0 1 .44 1 1zm-7.33 3.15c0 .55-.45 1-1 1-.56 0-1-.45-1-1 0-.56.44-1 1-1 .55 0 1 .44 1 1zm-7.4 2.97c0 .55-.45 1-1 1-.56 0-1-.45-1-1 0-.56.44-1 1-1 .55 0 1 .44 1 1zm-7.4 2.97c0 .55-.45 1-1 1s-1-.45-1-1 .45-1 1-1 1 .45 1 1zm-7.4 2.98c0 .55-.45 1-1 1s-1-.45-1-1c0-.56.45-1 1-1s1 .44 1 1zm-7.4 2.97c0 .55-.44 1-1 1-.55 0-1-.45-1-1s.45-1 1-1c.56 0 1 .45 1 1zm-7.4 2.98c0 .55-.44 1-1 1-.55 0-1-.45-1-1s.45-1 1-1c.56 0 1 .45 1 1zm-7.4 2.97c0 .56-.44 1-1 1-.55 0-1-.44-1-1 0-.55.45-1 1-1 .56 0 1 .45 1 1zm-7.28 3.23c0 .55-.46 1-1 1-.56 0-1-.45-1-1s.44-1 1-1c.54 0 1 .45 1 1zm-7.06 3.72c0 .55-.45 1-1 1s-1-.45-1-1 .45-1 1-1 1 .45 1 1zm-6.74 4.26c0 .56-.44 1-1 1-.55 0-1-.44-1-1 0-.55.45-1 1-1 .56 0 1 .45 1 1zm-6.22 4.98c0 .56-.44 1-1 1-.55 0-1-.44-1-1 0-.55.45-1 1-1 .56 0 1 .45 1 1zm-5.3 5.93c0 .54-.46 1-1 1-.56 0-1-.46-1-1 0-.56.44-1 1-1 .54 0 1 .44 1 1zm-3.75 7c0 .55-.45 1-1 1s-1-.45-1-1 .45-1 1-1 1 .45 1 1z" fill="#5e5e5e"/><path d="M525.08 962.55l-2-.04.02-1h2zM397.7 1057.47v1.03h-2v-1.03z" stroke="#5e5e5e" stroke-width=".05" fill="#5e5e5e"/><path d="M490.7 928.02l-3.23.07-3.97.24-3.73.4-3.55.5-3.38.66-3.26.76-3.15.88-3.07 1-3 1.12-2.98 1.25-2.96 1.4-2.96 1.55-3 1.72-3.05 1.95-3.16 2.2-3.34 2.54-3.6 2.98-4.03 3.63-4.83 4.74-7 7.5-22.68 25.3-4.82 4.73-4.03 3.63-3.6 2.98-3.34 2.54-3.17 2.2-3.07 1.95-3 1.73-2.95 1.54-2.96 1.4-2.97 1.24-3 1.12-3.08 1-3.15.88-3.25.76-3.4.65-3.54.52-3.73.4-3.97.24-3.23.08" stroke="#5e5e5e" stroke-width="2" stroke-linejoin="round" fill="none"/><path d="M491.7 929l-1 .02-.05-2 1.05-.02zM332.53 1021h-1.1l.07-.98-.03-1.02h1.06z" stroke="#5e5e5e" stroke-width=".05" fill="#5e5e5e"/><path d="M680-750c22.1 0 40 17.9 40 40s-17.9 40-40 40h-80c-22.1 0-40-17.9-40-40s17.9-40 40-40z" stroke="#5e5e5e" stroke-width="3" fill="#fff"/><use xlink:href="#Y" transform="matrix(1,0,0,1,565,-745) translate(63.30246913580247 39.65277777777778)"/><path d="M500-720c22.1 0 40 17.9 40 40s-17.9 40-40 40h-80c-22.1 0-40-17.9-40-40s17.9-40 40-40z" stroke="#5e5e5e" stroke-width="3" fill="#fff"/><use xlink:href="#Z" transform="matrix(1,0,0,1,385,-715) translate(26.887716049382718 26.52777777777778)"/><use xlink:href="#L" transform="matrix(1,0,0,1,385,-715) translate(98.43092592592592 26.52777777777778)"/><use xlink:href="#aa" transform="matrix(1,0,0,1,385,-715) translate(19.572901234567887 53.19444444444445)"/><path d="M602.98-502.5l.18-9.1.54-8.67.8-7.65 1.02-6.88 1.2-6.34 1.4-5.97 1.63-5.82 1.9-5.87 2.35-6.3 3.3-7.78 14.6-32.03 2.36-6.3 1.9-5.88 1.62-5.8 1.4-6 1.2-6.32 1.03-6.88.8-7.65.55-8.68.18-9.1" stroke="#5e5e5e" stroke-width="2" stroke-linejoin="round" fill="none"/><path d="M603.98-502.5l-.02 1h-2l.02-1.05zM643.96-667.47h-2v-1.03h2z" stroke="#5e5e5e" stroke-width=".05" fill="#5e5e5e"/><path d="M564.48-502.5l-.03-1.75-.17-2.62-.26-2.5-.35-2.4-.45-2.34-.53-2.27-.63-2.2-.7-2.18-.8-2.14-.9-2.1-1-2.13-1.1-2.12-1.23-2.14-1.38-2.16-1.54-2.22-1.74-2.3-1.97-2.37-2.25-2.5-2.62-2.68-3.1-2.92-3.83-3.3-4.96-3.9-7.4-5.38-33.97-23.1-4.96-3.93-3.8-3.3-3.13-2.9-2.62-2.7-2.25-2.5-1.98-2.37-1.73-2.3-1.56-2.2-1.37-2.18-1.24-2.15-1.1-2.12-1-2.12-.9-2.1-.8-2.15-.7-2.17-.62-2.2-.52-2.27-.44-2.32-.36-2.4-.26-2.5-.16-2.63-.04-1.75" stroke="#5e5e5e" stroke-width="2" stroke-linejoin="round" fill="none"/><path d="M565.5-501.5h-2l-.02-1 2-.05zM461-637.47h-2v-1.03h2z" stroke="#5e5e5e" stroke-width=".05" fill="#5e5e5e"/><path d="M340-620c22.1 0 40 17.9 40 40s-17.9 40-40 40h-80c-22.1 0-40-17.9-40-40s17.9-40 40-40z" stroke="#5e5e5e" stroke-width="3" fill="#fff"/><g><use xlink:href="#U" transform="matrix(1,0,0,1,225,-615) translate(43.580246913580254 39.65277777777778)"/></g><path d="M382.5-579.98l1.5.03 2.34.15 2.25.25 2.15.32 2.08.4 2.03.5 1.97.55 1.94.64 1.9.73 1.9.8 1.9.92 1.88 1 1.92 1.14 1.94 1.27 2 1.42 2.08 1.62 2.17 1.85 2.3 2.13 2.5 2.53 2.8 3.08 3.28 3.96 4.37 5.74 20.97 29.56 3.3 3.96 2.78 3.08 2.5 2.53 2.3 2.13 2.17 1.84 2.07 1.62 2 1.4 1.93 1.28 1.92 1.13 1.9 1.03 1.88.9 1.9.82 1.9.73 1.94.64 1.97.56 2.03.5 2.08.4 2.16.32 2.26.24 2.36.15 1.48.02" stroke="#5e5e5e" stroke-width="2" stroke-linejoin="round" fill="none"/><path d="M382.55-580.98l-.04 2-1.06-.02.06-.98-.03-1.02zM498.58-495.06l-.08 1v1h-1.03v-2z" stroke="#5e5e5e" stroke-width=".05" fill="#5e5e5e"/><path d="M340-510c22.1 0 40 17.9 40 40s-17.9 40-40 40h-80c-22.1 0-40-17.9-40-40s17.9-40 40-40z" stroke="#5e5e5e" stroke-width="3" fill="#fff"/><g><use xlink:href="#ab" transform="matrix(1,0,0,1,225,-505) translate(42.31481481481482 39.65277777777778)"/></g><path d="M382.5-469.98l5.76.12 5.86.37 5.18.57 4.68.7 4.3.84 4.08.98 3.94 1.13 3.93 1.3 4.13 1.58 4.75 2.05 7.9 3.84 13.9 6.9 4.75 2.05 4.12 1.57 3.94 1.3 3.94 1.12 4.07.97 4.32.83 4.68.7 5.18.56 5.86.36 5.76.12" stroke="#5e5e5e" stroke-width="2" stroke-linejoin="round" fill="none"/><path d="M382.55-470.98l-.04 2-1.06-.02.06-.98-.03-1.02zM498.5-441v2h-1.03v-2z" stroke="#5e5e5e" stroke-width=".05" fill="#5e5e5e"/><path d="M470 340c22.1 0 40 17.9 40 40s-17.9 40-40 40h-80c-22.1 0-40-17.9-40-40s17.9-40 40-40z" stroke="#5e5e5e" stroke-width="3" fill="#fff"/><g><use xlink:href="#ab" transform="matrix(1,0,0,1,355,345) translate(42.31481481481482 39.65277777777778)"/></g><path d="M351.27 330.08l4.1-1.2 4.96-1.66 4.88-1.88 4.87-2.1 4.9-2.37 5.05-2.7 5.3-3.15 5.8-3.76 6.76-4.82 9.62-7.5 27.95-22.7 5.9-4.2 4.88-3.17 4.35-2.58 4.03-2.17 3.84-1.85 3.7-1.6 3.66-1.4 3.63-1.23 3.65-1.06 3.7-.92 3.8-.77 3.9-.6 4.07-.48 4.26-.3 4.52-.15h.18" stroke="#5e5e5e" stroke-width="2" stroke-linejoin="round" fill="none"/><path d="M351.57 331.03l-1 .3-.52-1.94.96-.3zM498.5 254.06l.06.7h-1.08v-2h1.02z" stroke="#5e5e5e" stroke-width=".05" fill="#5e5e5e"/><path d="M542.54 262.5l-.06 2.03-.26 2.78-.4 2.58-.55 2.43-.67 2.32-.8 2.24-.96 2.2-1.12 2.2-1.3 2.2-1.58 2.3-1.9 2.45-2.38 2.7-3.2 3.2-5.18 4.54-21.24 17.32-3.77 3.75-2.9 3.3-2.38 3.06-2.02 2.96-1.74 2.93-1.5 2.96-1.32 3.04-.78 2.17" stroke="#5e5e5e" stroke-width="2" stroke-linejoin="round" fill="none"/><path d="M543.54 262.56l-2-.06.04-1h2zM485.5 340.42l-.35.93-1.9-.6.36-1z" stroke="#5e5e5e" stroke-width=".05" fill="#5e5e5e"/><defs><path fill="#333" d="M30-248c87 1 191-15 191 75 0 78-77 80-158 76V0H30v-248zm33 125c57 0 124 11 124-50 0-59-68-47-124-48v98" id="ac"/><path fill="#333" d="M205 0l-28-72H64L36 0H1l101-248h38L239 0h-34zm-38-99l-47-123c-12 45-31 82-46 123h93" id="ad"/><path fill="#333" d="M212-179c-10-28-35-45-73-45-59 0-87 40-87 99 0 60 29 101 89 101 43 0 62-24 78-52l27 14C228-24 195 4 139 4 59 4 22-46 18-125c-6-104 99-153 187-111 19 9 31 26 39 46" id="ae"/><path fill="#333" d="M33 0v-248h34V0H33" id="af"/><path fill="#333" d="M30 0v-248h187v28H63v79h144v27H63v87h162V0H30" id="ag"/><path fill="#333" d="M190 0L58-211 59 0H30v-248h39L202-35l-2-213h31V0h-41" id="ah"/><path fill="#333" d="M127-220V0H93v-220H8v-28h204v28h-85" id="ai"/><g id="a"><use transform="matrix(0.06172839506172839,0,0,0.06172839506172839,0,0)" xlink:href="#ac"/><use transform="matrix(0.06172839506172839,0,0,0.06172839506172839,13.148148148148147,0)" xlink:href="#ad"/><use transform="matrix(0.06172839506172839,0,0,0.06172839506172839,27.962962962962962,0)" xlink:href="#ae"/><use transform="matrix(0.06172839506172839,0,0,0.06172839506172839,43.95061728395061,0)" xlink:href="#af"/><use transform="matrix(0.06172839506172839,0,0,0.06172839506172839,50.123456790123456,0)" xlink:href="#ag"/><use transform="matrix(0.06172839506172839,0,0,0.06172839506172839,64.93827160493827,0)" xlink:href="#ah"/><use transform="matrix(0.06172839506172839,0,0,0.06172839506172839,80.92592592592592,0)" xlink:href="#ai"/><use transform="matrix(0.06172839506172839,0,0,0.06172839506172839,94.44444444444444,0)" xlink:href="#ag"/></g><path fill="#333" d="M30-248c118-7 216 8 213 122C240-48 200 0 122 0H30v-248zM63-27c89 8 146-16 146-99s-60-101-146-95v194" id="aj"/><path fill="#333" d="M140-251c81 0 123 46 123 126C263-46 219 4 140 4 59 4 17-45 17-125s42-126 123-126zm0 227c63 0 89-41 89-101s-29-99-89-99c-61 0-89 39-89 99S79-25 140-24" id="ak"/><path fill="#333" d="M233-177c-1 41-23 64-60 70L243 0h-38l-65-103H63V0H30v-248c88 3 205-21 203 71zM63-129c60-2 137 13 137-47 0-61-80-42-137-45v92" id="al"/><g id="b"><use transform="matrix(0.06172839506172839,0,0,0.06172839506172839,0,0)" xlink:href="#aj"/><use transform="matrix(0.06172839506172839,0,0,0.06172839506172839,15.987654320987653,0)" xlink:href="#ak"/><use transform="matrix(0.06172839506172839,0,0,0.06172839506172839,33.2716049382716,0)" xlink:href="#ae"/><use transform="matrix(0.06172839506172839,0,0,0.06172839506172839,49.25925925925925,0)" xlink:href="#ai"/><use transform="matrix(0.06172839506172839,0,0,0.06172839506172839,62.34567901234567,0)" xlink:href="#ak"/><use transform="matrix(0.06172839506172839,0,0,0.06172839506172839,79.62962962962962,0)" xlink:href="#al"/></g><path fill="#333" d="M140-251c81 0 123 46 123 126C263-53 228-8 163 1c7 30 30 48 69 40v23c-55 16-95-15-103-61C56-3 17-48 17-125c0-80 42-126 123-126zm0 227c63 0 89-41 89-101s-29-99-89-99c-61 0-89 39-89 99S79-25 140-24" id="am"/><g id="c"><use transform="matrix(0.06172839506172839,0,0,0.06172839506172839,0,0)" xlink:href="#ac"/><use transform="matrix(0.06172839506172839,0,0,0.06172839506172839,14.814814814814813,0)" xlink:href="#am"/><use transform="matrix(0.06172839506172839,0,0,0.06172839506172839,32.09876543209876,0)" xlink:href="#al"/></g><path fill="#333" d="M197 0v-115H63V0H30v-248h33v105h134v-105h34V0h-34" id="an"/><path fill="#333" d="M185-189c-5-48-123-54-124 2 14 75 158 14 163 119 3 78-121 87-175 55-17-10-28-26-33-46l33-7c5 56 141 63 141-1 0-78-155-14-162-118-5-82 145-84 179-34 5 7 8 16 11 25" id="ao"/><path fill="#333" d="M30 0v-248h33v221h125V0H30" id="ap"/><g id="d"><use transform="matrix(0.06172839506172839,0,0,0.06172839506172839,0,0)" xlink:href="#an"/><use transform="matrix(0.06172839506172839,0,0,0.06172839506172839,15.987654320987653,0)" xlink:href="#af"/><use transform="matrix(0.06172839506172839,0,0,0.06172839506172839,22.160493827160494,0)" xlink:href="#ao"/><use transform="matrix(0.06172839506172839,0,0,0.06172839506172839,36.9753086419753,0)" xlink:href="#ai"/><use transform="matrix(0.06172839506172839,0,0,0.06172839506172839,50.06172839506172,0)" xlink:href="#ak"/><use transform="matrix(0.06172839506172839,0,0,0.06172839506172839,67.34567901234567,0)" xlink:href="#al"/><use transform="matrix(0.06172839506172839,0,0,0.06172839506172839,83.33333333333333,0)" xlink:href="#af"/><use transform="matrix(0.06172839506172839,0,0,0.06172839506172839,89.50617283950616,0)" xlink:href="#ad"/><use transform="matrix(0.06172839506172839,0,0,0.06172839506172839,104.32098765432097,0)" xlink:href="#ap"/></g><g id="e"><use transform="matrix(0.06172839506172839,0,0,0.06172839506172839,0,0)" xlink:href="#ae"/><use transform="matrix(0.06172839506172839,0,0,0.06172839506172839,15.987654320987653,0)" xlink:href="#ap"/><use transform="matrix(0.06172839506172839,0,0,0.06172839506172839,28.333333333333332,0)" xlink:href="#af"/><use transform="matrix(0.06172839506172839,0,0,0.06172839506172839,34.50617283950617,0)" xlink:href="#ah"/><use transform="matrix(0.06172839506172839,0,0,0.06172839506172839,50.49382716049382,0)" xlink:href="#af"/><use transform="matrix(0.06172839506172839,0,0,0.06172839506172839,56.666666666666664,0)" xlink:href="#ae"/><use transform="matrix(0.06172839506172839,0,0,0.06172839506172839,72.65432098765432,0)" xlink:href="#ak"/></g><g id="f"><use transform="matrix(0.06172839506172839,0,0,0.06172839506172839,0,0)" xlink:href="#ag"/><use transform="matrix(0.06172839506172839,0,0,0.06172839506172839,14.814814814814813,0)" xlink:href="#ac"/><use transform="matrix(0.06172839506172839,0,0,0.06172839506172839,29.629629629629626,0)" xlink:href="#ao"/></g><path fill="#333" d="M59-47c-2 24 18 29 38 22v24C64 9 27 4 27-40v-127H5v-23h24l9-43h21v43h35v23H59v120" id="aq"/><path fill="#333" d="M24-231v-30h32v30H24zM24 0v-190h32V0H24" id="ar"/><path fill="#333" d="M100-194c63 0 86 42 84 106H49c0 40 14 67 53 68 26 1 43-12 49-29l28 8c-11 28-37 45-77 45C44 4 14-33 15-96c1-61 26-98 85-98zm52 81c6-60-76-77-97-28-3 7-6 17-6 28h103" id="as"/><path fill="#333" d="M117-194c89-4 53 116 60 194h-32v-121c0-31-8-49-39-48C34-167 62-67 57 0H25l-1-190h30c1 10-1 24 2 32 11-22 29-35 61-36" id="at"/><g id="g"><use transform="matrix(0.06172839506172839,0,0,0.06172839506172839,0,0)" xlink:href="#aq"/><use transform="matrix(0.06172839506172839,0,0,0.06172839506172839,6.172839506172839,0)" xlink:href="#ar"/><use transform="matrix(0.06172839506172839,0,0,0.06172839506172839,11.049382716049383,0)" xlink:href="#as"/><use transform="matrix(0.06172839506172839,0,0,0.06172839506172839,23.395061728395063,0)" xlink:href="#at"/><use transform="matrix(0.06172839506172839,0,0,0.06172839506172839,35.74074074074074,0)" xlink:href="#as"/></g><path fill="#333" d="M115-194c55 1 70 41 70 98S169 2 115 4C84 4 66-9 55-30l1 105H24l-1-265h31l2 30c10-21 28-34 59-34zm-8 174c40 0 45-34 45-75s-6-73-45-74c-42 0-51 32-51 76 0 43 10 73 51 73" id="au"/><path fill="#333" d="M114-163C36-179 61-72 57 0H25l-1-190h30c1 12-1 29 2 39 6-27 23-49 58-41v29" id="av"/><path fill="#333" d="M135-143c-3-34-86-38-87 0 15 53 115 12 119 90S17 21 10-45l28-5c4 36 97 45 98 0-10-56-113-15-118-90-4-57 82-63 122-42 12 7 21 19 24 35" id="aw"/><path fill="#333" d="M141-36C126-15 110 5 73 4 37 3 15-17 15-53c-1-64 63-63 125-63 3-35-9-54-41-54-24 1-41 7-42 31l-33-3c5-37 33-52 76-52 45 0 72 20 72 64v82c-1 20 7 32 28 27v20c-31 9-61-2-59-35zM48-53c0 20 12 33 32 33 41-3 63-29 60-74-43 2-92-5-92 41" id="ax"/><g id="h"><use transform="matrix(0.06172839506172839,0,0,0.06172839506172839,0,0)" xlink:href="#au"/><use transform="matrix(0.06172839506172839,0,0,0.06172839506172839,12.345679012345679,0)" xlink:href="#av"/><use transform="matrix(0.06172839506172839,0,0,0.06172839506172839,19.691358024691358,0)" xlink:href="#as"/><use transform="matrix(0.06172839506172839,0,0,0.06172839506172839,32.03703703703704,0)" xlink:href="#aw"/><use transform="matrix(0.06172839506172839,0,0,0.06172839506172839,43.14814814814815,0)" xlink:href="#as"/><use transform="matrix(0.06172839506172839,0,0,0.06172839506172839,55.49382716049383,0)" xlink:href="#at"/><use transform="matrix(0.06172839506172839,0,0,0.06172839506172839,67.8395061728395,0)" xlink:href="#aq"/><use transform="matrix(0.06172839506172839,0,0,0.06172839506172839,74.01234567901234,0)" xlink:href="#ax"/></g><g id="i"><use transform="matrix(0.06172839506172839,0,0,0.06172839506172839,0,0)" xlink:href="#ae"/><use transform="matrix(0.06172839506172839,0,0,0.06172839506172839,15.987654320987653,0)" xlink:href="#af"/><use transform="matrix(0.06172839506172839,0,0,0.06172839506172839,22.160493827160494,0)" xlink:href="#ai"/><use transform="matrix(0.06172839506172839,0,0,0.06172839506172839,34.01234567901234,0)" xlink:href="#ad"/></g><path fill="#333" d="M85-194c31 0 48 13 60 33l-1-100h32l1 261h-30c-2-10 0-23-3-31C134-8 116 4 85 4 32 4 16-35 15-94c0-66 23-100 70-100zm9 24c-40 0-46 34-46 75 0 40 6 74 45 74 42 0 51-32 51-76 0-42-9-74-50-73" id="ay"/><path fill="#333" d="M96-169c-40 0-48 33-48 73s9 75 48 75c24 0 41-14 43-38l32 2c-6 37-31 61-74 61-59 0-76-41-82-99-10-93 101-131 147-64 4 7 5 14 7 22l-32 3c-4-21-16-35-41-35" id="az"/><path fill="#333" d="M100-194c62-1 85 37 85 99 1 63-27 99-86 99S16-35 15-95c0-66 28-99 85-99zM99-20c44 1 53-31 53-75 0-43-8-75-51-75s-53 32-53 75 10 74 51 75" id="aA"/><g id="j"><use transform="matrix(0.06172839506172839,0,0,0.06172839506172839,0,0)" xlink:href="#ay"/><use transform="matrix(0.06172839506172839,0,0,0.06172839506172839,12.345679012345679,0)" xlink:href="#ar"/><use transform="matrix(0.06172839506172839,0,0,0.06172839506172839,17.22222222222222,0)" xlink:href="#av"/><use transform="matrix(0.06172839506172839,0,0,0.06172839506172839,24.5679012345679,0)" xlink:href="#as"/><use transform="matrix(0.06172839506172839,0,0,0.06172839506172839,36.913580246913575,0)" xlink:href="#az"/><use transform="matrix(0.06172839506172839,0,0,0.06172839506172839,48.02469135802468,0)" xlink:href="#az"/><use transform="matrix(0.06172839506172839,0,0,0.06172839506172839,59.1358024691358,0)" xlink:href="#ar"/><use transform="matrix(0.06172839506172839,0,0,0.06172839506172839,64.01234567901234,0)" xlink:href="#aA"/><use transform="matrix(0.06172839506172839,0,0,0.06172839506172839,76.35802469135803,0)" xlink:href="#at"/></g><g id="k"><use transform="matrix(0.06172839506172839,0,0,0.06172839506172839,0,0)" xlink:href="#ar"/><use transform="matrix(0.06172839506172839,0,0,0.06172839506172839,4.876543209876543,0)" xlink:href="#ay"/><path fill="#333" d="M-1.1 1.54h19.43v1.63H-1.1z"/></g><path fill="#333" d="M108 0H70L1-190h34L89-25l56-165h34" id="aB"/><path fill="#333" d="M24 0v-261h32V0H24" id="aC"/><g id="l"><use transform="matrix(0.06172839506172839,0,0,0.06172839506172839,0,0)" xlink:href="#at"/><use transform="matrix(0.06172839506172839,0,0,0.06172839506172839,12.345679012345679,0)" xlink:href="#ar"/><use transform="matrix(0.06172839506172839,0,0,0.06172839506172839,17.22222222222222,0)" xlink:href="#aB"/><use transform="matrix(0.06172839506172839,0,0,0.06172839506172839,28.333333333333332,0)" xlink:href="#as"/><use transform="matrix(0.06172839506172839,0,0,0.06172839506172839,40.67901234567901,0)" xlink:href="#aC"/></g><g id="m"><use transform="matrix(0.06172839506172839,0,0,0.06172839506172839,0,0)" xlink:href="#ax"/><use transform="matrix(0.06172839506172839,0,0,0.06172839506172839,12.345679012345679,0)" xlink:href="#aw"/><use transform="matrix(0.06172839506172839,0,0,0.06172839506172839,23.45679012345679,0)" xlink:href="#ar"/><use transform="matrix(0.06172839506172839,0,0,0.06172839506172839,28.333333333333336,0)" xlink:href="#aw"/><use transform="matrix(0.06172839506172839,0,0,0.06172839506172839,39.44444444444444,0)" xlink:href="#aq"/><use transform="matrix(0.06172839506172839,0,0,0.06172839506172839,45.617283950617285,0)" xlink:href="#as"/><use transform="matrix(0.06172839506172839,0,0,0.06172839506172839,57.96296296296296,0)" xlink:href="#at"/><use transform="matrix(0.06172839506172839,0,0,0.06172839506172839,70.30864197530865,0)" xlink:href="#aw"/><use transform="matrix(0.06172839506172839,0,0,0.06172839506172839,81.41975308641976,0)" xlink:href="#ar"/><use transform="matrix(0.06172839506172839,0,0,0.06172839506172839,86.2962962962963,0)" xlink:href="#ax"/></g><g id="n"><use transform="matrix(0.06172839506172839,0,0,0.06172839506172839,0,0)" xlink:href="#at"/><use transform="matrix(0.06172839506172839,0,0,0.06172839506172839,12.345679012345679,0)" xlink:href="#ar"/><use transform="matrix(0.06172839506172839,0,0,0.06172839506172839,17.22222222222222,0)" xlink:href="#aB"/><use transform="matrix(0.06172839506172839,0,0,0.06172839506172839,28.333333333333332,0)" xlink:href="#as"/><use transform="matrix(0.06172839506172839,0,0,0.06172839506172839,40.67901234567901,0)" xlink:href="#aC"/></g><g id="o"><use transform="matrix(0.06172839506172839,0,0,0.06172839506172839,0,0)" xlink:href="#as"/><use transform="matrix(0.06172839506172839,0,0,0.06172839506172839,12.345679012345679,0)" xlink:href="#au"/><use transform="matrix(0.06172839506172839,0,0,0.06172839506172839,24.691358024691358,0)" xlink:href="#aw"/></g><path fill="#333" d="M101-234c-31-9-42 10-38 44h38v23H63V0H32v-167H5v-23h27c-7-52 17-82 69-68v24" id="aD"/><g id="p"><use transform="matrix(0.06172839506172839,0,0,0.06172839506172839,0,0)" xlink:href="#ai"/><use transform="matrix(0.06172839506172839,0,0,0.06172839506172839,11.049382716049381,0)" xlink:href="#as"/><use transform="matrix(0.06172839506172839,0,0,0.06172839506172839,23.39506172839506,0)" xlink:href="#aC"/><use transform="matrix(0.06172839506172839,0,0,0.06172839506172839,28.2716049382716,0)" xlink:href="#as"/><use transform="matrix(0.06172839506172839,0,0,0.06172839506172839,40.61728395061728,0)" xlink:href="#aD"/><use transform="matrix(0.06172839506172839,0,0,0.06172839506172839,46.79012345679012,0)" xlink:href="#aA"/><use transform="matrix(0.06172839506172839,0,0,0.06172839506172839,59.1358024691358,0)" xlink:href="#at"/><use transform="matrix(0.06172839506172839,0,0,0.06172839506172839,71.48148148148148,0)" xlink:href="#aA"/></g><path fill="#333" d="M106-169C34-169 62-67 57 0H25v-261h32l-1 103c12-21 28-36 61-36 89 0 53 116 60 194h-32v-121c2-32-8-49-39-48" id="aE"/><g id="q"><use transform="matrix(0.06172839506172839,0,0,0.06172839506172839,0,0)" xlink:href="#aD"/><use transform="matrix(0.06172839506172839,0,0,0.06172839506172839,6.172839506172839,0)" xlink:href="#as"/><use transform="matrix(0.06172839506172839,0,0,0.06172839506172839,18.51851851851852,0)" xlink:href="#az"/><use transform="matrix(0.06172839506172839,0,0,0.06172839506172839,29.62962962962963,0)" xlink:href="#aE"/><use transform="matrix(0.06172839506172839,0,0,0.06172839506172839,41.97530864197531,0)" xlink:href="#ax"/></g><g id="r"><use transform="matrix(0.06172839506172839,0,0,0.06172839506172839,0,0)" xlink:href="#aq"/><use transform="matrix(0.06172839506172839,0,0,0.06172839506172839,6.172839506172839,0)" xlink:href="#ar"/><use transform="matrix(0.06172839506172839,0,0,0.06172839506172839,11.049382716049383,0)" xlink:href="#au"/><use transform="matrix(0.06172839506172839,0,0,0.06172839506172839,23.395061728395063,0)" xlink:href="#aA"/></g><g id="s"><use transform="matrix(0.06172839506172839,0,0,0.06172839506172839,0,0)" xlink:href="#az"/><use transform="matrix(0.06172839506172839,0,0,0.06172839506172839,11.11111111111111,0)" xlink:href="#ar"/><use transform="matrix(0.06172839506172839,0,0,0.06172839506172839,15.987654320987653,0)" xlink:href="#aq"/><use transform="matrix(0.06172839506172839,0,0,0.06172839506172839,22.160493827160494,0)" xlink:href="#ax"/></g><g id="t"><use transform="matrix(0.06172839506172839,0,0,0.06172839506172839,0,0)" xlink:href="#ai"/><use transform="matrix(0.06172839506172839,0,0,0.06172839506172839,13.518518518518517,0)" xlink:href="#af"/><use transform="matrix(0.06172839506172839,0,0,0.06172839506172839,19.691358024691358,0)" xlink:href="#ag"/><use transform="matrix(0.06172839506172839,0,0,0.06172839506172839,34.50617283950617,0)" xlink:href="#ah"/><use transform="matrix(0.06172839506172839,0,0,0.06172839506172839,50.49382716049382,0)" xlink:href="#ag"/></g><g id="u"><use transform="matrix(0.06172839506172839,0,0,0.06172839506172839,0,0)" xlink:href="#ag"/><use transform="matrix(0.06172839506172839,0,0,0.06172839506172839,14.814814814814813,0)" xlink:href="#ao"/><use transform="matrix(0.06172839506172839,0,0,0.06172839506172839,29.629629629629626,0)" xlink:href="#ac"/><use transform="matrix(0.06172839506172839,0,0,0.06172839506172839,44.44444444444444,0)" xlink:href="#ag"/><use transform="matrix(0.06172839506172839,0,0,0.06172839506172839,59.25925925925925,0)" xlink:href="#ae"/><use transform="matrix(0.06172839506172839,0,0,0.06172839506172839,75.24691358024691,0)" xlink:href="#af"/><use transform="matrix(0.06172839506172839,0,0,0.06172839506172839,81.41975308641975,0)" xlink:href="#ad"/><use transform="matrix(0.06172839506172839,0,0,0.06172839506172839,96.23456790123456,0)" xlink:href="#ap"/><use transform="matrix(0.06172839506172839,0,0,0.06172839506172839,108.58024691358024,0)" xlink:href="#af"/><use transform="matrix(0.06172839506172839,0,0,0.06172839506172839,114.75308641975307,0)" xlink:href="#aj"/><use transform="matrix(0.06172839506172839,0,0,0.06172839506172839,130.74074074074073,0)" xlink:href="#ad"/><use transform="matrix(0.06172839506172839,0,0,0.06172839506172839,145.55555555555554,0)" xlink:href="#aj"/></g><g id="v"><use transform="matrix(0.06172839506172839,0,0,0.06172839506172839,0,0)" xlink:href="#aq"/><use transform="matrix(0.06172839506172839,0,0,0.06172839506172839,6.172839506172839,0)" xlink:href="#ar"/><use transform="matrix(0.06172839506172839,0,0,0.06172839506172839,11.049382716049383,0)" xlink:href="#au"/><use transform="matrix(0.06172839506172839,0,0,0.06172839506172839,23.395061728395063,0)" xlink:href="#aA"/><path fill="#333" d="M-1.1 1.54h44.13v1.63H-1.1z"/></g><g id="w"><use transform="matrix(0.06172839506172839,0,0,0.06172839506172839,0,0)" xlink:href="#ay"/><use transform="matrix(0.06172839506172839,0,0,0.06172839506172839,12.345679012345679,0)" xlink:href="#as"/><path fill="#333" d="M-1.1 1.54h26.9v1.63H-1.1z"/></g><path fill="#333" d="M84 4C-5 8 30-112 23-190h32v120c0 31 7 50 39 49 72-2 45-101 50-169h31l1 190h-30c-1-10 1-25-2-33-11 22-28 36-60 37" id="aF"/><path fill="#333" d="M210-169c-67 3-38 105-44 169h-31v-121c0-29-5-50-35-48C34-165 62-65 56 0H25l-1-190h30c1 10-1 24 2 32 10-44 99-50 107 0 11-21 27-35 58-36 85-2 47 119 55 194h-31v-121c0-29-5-49-35-48" id="aG"/><g id="x"><use transform="matrix(0.06172839506172839,0,0,0.06172839506172839,0,0)" xlink:href="#ay"/><use transform="matrix(0.06172839506172839,0,0,0.06172839506172839,12.345679012345679,0)" xlink:href="#aA"/><use transform="matrix(0.06172839506172839,0,0,0.06172839506172839,24.691358024691358,0)" xlink:href="#az"/><use transform="matrix(0.06172839506172839,0,0,0.06172839506172839,35.80246913580247,0)" xlink:href="#aF"/><use transform="matrix(0.06172839506172839,0,0,0.06172839506172839,48.148148148148145,0)" xlink:href="#aG"/><use transform="matrix(0.06172839506172839,0,0,0.06172839506172839,66.60493827160494,0)" xlink:href="#as"/><use transform="matrix(0.06172839506172839,0,0,0.06172839506172839,78.95061728395062,0)" xlink:href="#at"/><use transform="matrix(0.06172839506172839,0,0,0.06172839506172839,91.2962962962963,0)" xlink:href="#aq"/><use transform="matrix(0.06172839506172839,0,0,0.06172839506172839,97.46913580246914,0)" xlink:href="#aA"/><path fill="#333" d="M-1.1 1.54h112.03v1.63H-1.1z"/></g><g id="y"><use transform="matrix(0.06172839506172839,0,0,0.06172839506172839,0,0)" xlink:href="#aD"/><use transform="matrix(0.06172839506172839,0,0,0.06172839506172839,6.172839506172839,0)" xlink:href="#as"/><use transform="matrix(0.06172839506172839,0,0,0.06172839506172839,18.51851851851852,0)" xlink:href="#az"/><use transform="matrix(0.06172839506172839,0,0,0.06172839506172839,29.62962962962963,0)" xlink:href="#aE"/><use transform="matrix(0.06172839506172839,0,0,0.06172839506172839,41.97530864197531,0)" xlink:href="#ax"/></g><g id="z"><use transform="matrix(0.06172839506172839,0,0,0.06172839506172839,0,0)" xlink:href="#at"/><use transform="matrix(0.06172839506172839,0,0,0.06172839506172839,12.345679012345679,0)" xlink:href="#ax"/><use transform="matrix(0.06172839506172839,0,0,0.06172839506172839,24.691358024691358,0)" xlink:href="#az"/><use transform="matrix(0.06172839506172839,0,0,0.06172839506172839,35.80246913580247,0)" xlink:href="#ar"/><use transform="matrix(0.06172839506172839,0,0,0.06172839506172839,40.67901234567901,0)" xlink:href="#aG"/><use transform="matrix(0.06172839506172839,0,0,0.06172839506172839,59.1358024691358,0)" xlink:href="#ar"/><use transform="matrix(0.06172839506172839,0,0,0.06172839506172839,64.01234567901234,0)" xlink:href="#as"/><use transform="matrix(0.06172839506172839,0,0,0.06172839506172839,76.35802469135803,0)" xlink:href="#at"/><use transform="matrix(0.06172839506172839,0,0,0.06172839506172839,88.70370370370371,0)" xlink:href="#aq"/><use transform="matrix(0.06172839506172839,0,0,0.06172839506172839,94.87654320987654,0)" xlink:href="#aA"/></g><path fill="#333" d="M115-194c53 0 69 39 70 98 0 66-23 100-70 100C84 3 66-7 56-30L54 0H23l1-261h32v101c10-23 28-34 59-34zm-8 174c40 0 45-34 45-75 0-40-5-75-45-74-42 0-51 32-51 76 0 43 10 73 51 73" id="aH"/><g id="A"><use transform="matrix(0.06172839506172839,0,0,0.06172839506172839,0,0)" xlink:href="#at"/><use transform="matrix(0.06172839506172839,0,0,0.06172839506172839,12.345679012345679,0)" xlink:href="#aA"/><use transform="matrix(0.06172839506172839,0,0,0.06172839506172839,24.691358024691358,0)" xlink:href="#aG"/><use transform="matrix(0.06172839506172839,0,0,0.06172839506172839,43.148148148148145,0)" xlink:href="#aH"/><use transform="matrix(0.06172839506172839,0,0,0.06172839506172839,55.49382716049382,0)" xlink:href="#av"/><use transform="matrix(0.06172839506172839,0,0,0.06172839506172839,62.8395061728395,0)" xlink:href="#as"/></g><g id="B"><use transform="matrix(0.06172839506172839,0,0,0.06172839506172839,0,0)" xlink:href="#ax"/><use transform="matrix(0.06172839506172839,0,0,0.06172839506172839,12.345679012345679,0)" xlink:href="#au"/><use transform="matrix(0.06172839506172839,0,0,0.06172839506172839,24.691358024691358,0)" xlink:href="#as"/><use transform="matrix(0.06172839506172839,0,0,0.06172839506172839,37.03703703703704,0)" xlink:href="#aC"/><use transform="matrix(0.06172839506172839,0,0,0.06172839506172839,41.91358024691358,0)" xlink:href="#aC"/><use transform="matrix(0.06172839506172839,0,0,0.06172839506172839,46.79012345679013,0)" xlink:href="#ar"/><use transform="matrix(0.06172839506172839,0,0,0.06172839506172839,51.66666666666667,0)" xlink:href="#ay"/><use transform="matrix(0.06172839506172839,0,0,0.06172839506172839,64.01234567901236,0)" xlink:href="#aA"/></g><g id="C"><use transform="matrix(0.06172839506172839,0,0,0.06172839506172839,0,0)" xlink:href="#as"/><use transform="matrix(0.06172839506172839,0,0,0.06172839506172839,12.345679012345679,0)" xlink:href="#ay"/><use transform="matrix(0.06172839506172839,0,0,0.06172839506172839,24.691358024691358,0)" xlink:href="#ax"/><use transform="matrix(0.06172839506172839,0,0,0.06172839506172839,37.03703703703704,0)" xlink:href="#ay"/></g><g id="D"><use transform="matrix(0.06172839506172839,0,0,0.06172839506172839,0,0)" xlink:href="#ai"/><use transform="matrix(0.06172839506172839,0,0,0.06172839506172839,11.049382716049381,0)" xlink:href="#as"/><use transform="matrix(0.06172839506172839,0,0,0.06172839506172839,23.39506172839506,0)" xlink:href="#av"/><use transform="matrix(0.06172839506172839,0,0,0.06172839506172839,30.74074074074074,0)" xlink:href="#aG"/><use transform="matrix(0.06172839506172839,0,0,0.06172839506172839,49.19753086419753,0)" xlink:href="#ar"/><use transform="matrix(0.06172839506172839,0,0,0.06172839506172839,54.074074074074076,0)" xlink:href="#at"/><use transform="matrix(0.06172839506172839,0,0,0.06172839506172839,66.41975308641976,0)" xlink:href="#ax"/><use transform="matrix(0.06172839506172839,0,0,0.06172839506172839,78.76543209876544,0)" xlink:href="#ay"/><use transform="matrix(0.06172839506172839,0,0,0.06172839506172839,91.11111111111113,0)" xlink:href="#aA"/><use transform="matrix(0.06172839506172839,0,0,0.06172839506172839,103.45679012345681,0)" xlink:href="#av"/></g><g id="E"><use transform="matrix(0.06172839506172839,0,0,0.06172839506172839,0,0)" xlink:href="#aq"/><use transform="matrix(0.06172839506172839,0,0,0.06172839506172839,6.172839506172839,0)" xlink:href="#as"/><use transform="matrix(0.06172839506172839,0,0,0.06172839506172839,18.51851851851852,0)" xlink:href="#aC"/><use transform="matrix(0.06172839506172839,0,0,0.06172839506172839,23.395061728395063,0)" xlink:href="#as"/><use transform="matrix(0.06172839506172839,0,0,0.06172839506172839,35.74074074074074,0)" xlink:href="#aD"/><use transform="matrix(0.06172839506172839,0,0,0.06172839506172839,41.91358024691358,0)" xlink:href="#aA"/><use transform="matrix(0.06172839506172839,0,0,0.06172839506172839,54.25925925925926,0)" xlink:href="#at"/><use transform="matrix(0.06172839506172839,0,0,0.06172839506172839,66.60493827160494,0)" xlink:href="#aA"/></g><g id="F"><use transform="matrix(0.06172839506172839,0,0,0.06172839506172839,0,0)" xlink:href="#ay"/><use transform="matrix(0.06172839506172839,0,0,0.06172839506172839,12.345679012345679,0)" xlink:href="#aA"/><use transform="matrix(0.06172839506172839,0,0,0.06172839506172839,24.691358024691358,0)" xlink:href="#az"/><use transform="matrix(0.06172839506172839,0,0,0.06172839506172839,35.80246913580247,0)" xlink:href="#aF"/><use transform="matrix(0.06172839506172839,0,0,0.06172839506172839,48.148148148148145,0)" xlink:href="#aG"/><use transform="matrix(0.06172839506172839,0,0,0.06172839506172839,66.60493827160494,0)" xlink:href="#as"/><use transform="matrix(0.06172839506172839,0,0,0.06172839506172839,78.95061728395062,0)" xlink:href="#at"/><use transform="matrix(0.06172839506172839,0,0,0.06172839506172839,91.2962962962963,0)" xlink:href="#aq"/><use transform="matrix(0.06172839506172839,0,0,0.06172839506172839,97.46913580246914,0)" xlink:href="#aA"/><use transform="matrix(0.06172839506172839,0,0,0.06172839506172839,109.81481481481482,0)" xlink:href="#aw"/></g><g id="G"><use transform="matrix(0.06172839506172839,0,0,0.06172839506172839,0,0)" xlink:href="#ay"/><use transform="matrix(0.06172839506172839,0,0,0.06172839506172839,12.345679012345679,0)" xlink:href="#as"/><use transform="matrix(0.06172839506172839,0,0,0.06172839506172839,24.691358024691358,0)" xlink:href="#aC"/></g><g id="H"><use transform="matrix(0.06172839506172839,0,0,0.06172839506172839,0,0)" xlink:href="#au"/><use transform="matrix(0.06172839506172839,0,0,0.06172839506172839,12.345679012345679,0)" xlink:href="#ax"/><use transform="matrix(0.06172839506172839,0,0,0.06172839506172839,24.691358024691358,0)" xlink:href="#az"/><use transform="matrix(0.06172839506172839,0,0,0.06172839506172839,35.80246913580247,0)" xlink:href="#ar"/><use transform="matrix(0.06172839506172839,0,0,0.06172839506172839,40.67901234567901,0)" xlink:href="#as"/><use transform="matrix(0.06172839506172839,0,0,0.06172839506172839,53.02469135802469,0)" xlink:href="#at"/><use transform="matrix(0.06172839506172839,0,0,0.06172839506172839,65.37037037037037,0)" xlink:href="#aq"/><use transform="matrix(0.06172839506172839,0,0,0.06172839506172839,71.5432098765432,0)" xlink:href="#as"/></g><g id="I"><use transform="matrix(0.06172839506172839,0,0,0.06172839506172839,0,0)" xlink:href="#at"/><use transform="matrix(0.06172839506172839,0,0,0.06172839506172839,12.345679012345679,0)" xlink:href="#aA"/><use transform="matrix(0.06172839506172839,0,0,0.06172839506172839,24.691358024691358,0)" xlink:href="#aq"/><use transform="matrix(0.06172839506172839,0,0,0.06172839506172839,30.864197530864196,0)" xlink:href="#ax"/><use transform="matrix(0.06172839506172839,0,0,0.06172839506172839,43.20987654320987,0)" xlink:href="#aw"/></g><g id="J"><use transform="matrix(0.06172839506172839,0,0,0.06172839506172839,0,0)" xlink:href="#aG"/><use transform="matrix(0.06172839506172839,0,0,0.06172839506172839,18.456790123456788,0)" xlink:href="#as"/><use transform="matrix(0.06172839506172839,0,0,0.06172839506172839,30.80246913580247,0)" xlink:href="#ay"/><use transform="matrix(0.06172839506172839,0,0,0.06172839506172839,43.148148148148145,0)" xlink:href="#ar"/><use transform="matrix(0.06172839506172839,0,0,0.06172839506172839,48.02469135802469,0)" xlink:href="#az"/><use transform="matrix(0.06172839506172839,0,0,0.06172839506172839,59.1358024691358,0)" xlink:href="#ax"/><use transform="matrix(0.06172839506172839,0,0,0.06172839506172839,71.48148148148148,0)" xlink:href="#aw"/></g><g id="K"><use transform="matrix(0.06172839506172839,0,0,0.06172839506172839,0,0)" xlink:href="#aE"/><use transform="matrix(0.06172839506172839,0,0,0.06172839506172839,12.345679012345679,0)" xlink:href="#ar"/><use transform="matrix(0.06172839506172839,0,0,0.06172839506172839,17.22222222222222,0)" xlink:href="#aw"/><use transform="matrix(0.06172839506172839,0,0,0.06172839506172839,28.333333333333332,0)" xlink:href="#aq"/><use transform="matrix(0.06172839506172839,0,0,0.06172839506172839,34.50617283950617,0)" xlink:href="#aA"/><use transform="matrix(0.06172839506172839,0,0,0.06172839506172839,46.85185185185185,0)" xlink:href="#av"/><use transform="matrix(0.06172839506172839,0,0,0.06172839506172839,54.197530864197525,0)" xlink:href="#ar"/><use transform="matrix(0.06172839506172839,0,0,0.06172839506172839,59.07407407407407,0)" xlink:href="#ax"/><use transform="matrix(0.06172839506172839,0,0,0.06172839506172839,71.41975308641975,0)" xlink:href="#aC"/></g><g id="L"><use transform="matrix(0.06172839506172839,0,0,0.06172839506172839,0,0)" xlink:href="#ay"/><use transform="matrix(0.06172839506172839,0,0,0.06172839506172839,12.345679012345679,0)" xlink:href="#as"/></g><g id="M"><use transform="matrix(0.06172839506172839,0,0,0.06172839506172839,0,0)" xlink:href="#az"/><use transform="matrix(0.06172839506172839,0,0,0.06172839506172839,11.11111111111111,0)" xlink:href="#aA"/><use transform="matrix(0.06172839506172839,0,0,0.06172839506172839,23.45679012345679,0)" xlink:href="#at"/><use transform="matrix(0.06172839506172839,0,0,0.06172839506172839,35.80246913580247,0)" xlink:href="#aw"/><use transform="matrix(0.06172839506172839,0,0,0.06172839506172839,46.91358024691358,0)" xlink:href="#aF"/><use transform="matrix(0.06172839506172839,0,0,0.06172839506172839,59.25925925925926,0)" xlink:href="#aC"/><use transform="matrix(0.06172839506172839,0,0,0.06172839506172839,64.1358024691358,0)" xlink:href="#aq"/><use transform="matrix(0.06172839506172839,0,0,0.06172839506172839,70.30864197530863,0)" xlink:href="#ax"/><use transform="matrix(0.06172839506172839,0,0,0.06172839506172839,82.65432098765432,0)" xlink:href="#aw"/></g><g id="N"><use transform="matrix(0.06172839506172839,0,0,0.06172839506172839,0,0)" xlink:href="#aA"/><use transform="matrix(0.06172839506172839,0,0,0.06172839506172839,12.345679012345679,0)" xlink:href="#aH"/><use transform="matrix(0.06172839506172839,0,0,0.06172839506172839,24.691358024691358,0)" xlink:href="#aw"/><use transform="matrix(0.06172839506172839,0,0,0.06172839506172839,35.80246913580247,0)" xlink:href="#as"/><use transform="matrix(0.06172839506172839,0,0,0.06172839506172839,48.148148148148145,0)" xlink:href="#av"/><use transform="matrix(0.06172839506172839,0,0,0.06172839506172839,55.49382716049382,0)" xlink:href="#aB"/><use transform="matrix(0.06172839506172839,0,0,0.06172839506172839,66.60493827160494,0)" xlink:href="#ax"/><use transform="matrix(0.06172839506172839,0,0,0.06172839506172839,78.95061728395062,0)" xlink:href="#az"/><use transform="matrix(0.06172839506172839,0,0,0.06172839506172839,90.06172839506173,0)" xlink:href="#ar"/><use transform="matrix(0.06172839506172839,0,0,0.06172839506172839,94.93827160493828,0)" xlink:href="#aA"/><use transform="matrix(0.06172839506172839,0,0,0.06172839506172839,107.28395061728396,0)" xlink:href="#at"/><use transform="matrix(0.06172839506172839,0,0,0.06172839506172839,119.62962962962965,0)" xlink:href="#as"/><use transform="matrix(0.06172839506172839,0,0,0.06172839506172839,131.97530864197532,0)" xlink:href="#aw"/></g><g id="O"><use transform="matrix(0.06172839506172839,0,0,0.06172839506172839,0,0)" xlink:href="#aA"/><use transform="matrix(0.06172839506172839,0,0,0.06172839506172839,12.345679012345679,0)" xlink:href="#av"/><use transform="matrix(0.06172839506172839,0,0,0.06172839506172839,19.691358024691358,0)" xlink:href="#ay"/><use transform="matrix(0.06172839506172839,0,0,0.06172839506172839,32.03703703703704,0)" xlink:href="#as"/><use transform="matrix(0.06172839506172839,0,0,0.06172839506172839,44.382716049382715,0)" xlink:href="#at"/><use transform="matrix(0.06172839506172839,0,0,0.06172839506172839,56.72839506172839,0)" xlink:href="#as"/><use transform="matrix(0.06172839506172839,0,0,0.06172839506172839,69.07407407407408,0)" xlink:href="#aw"/></g><g id="P"><use transform="matrix(0.06172839506172839,0,0,0.06172839506172839,0,0)" xlink:href="#as"/><use transform="matrix(0.06172839506172839,0,0,0.06172839506172839,12.345679012345679,0)" xlink:href="#aw"/><use transform="matrix(0.06172839506172839,0,0,0.06172839506172839,23.45679012345679,0)" xlink:href="#aq"/><use transform="matrix(0.06172839506172839,0,0,0.06172839506172839,29.62962962962963,0)" xlink:href="#ax"/><use transform="matrix(0.06172839506172839,0,0,0.06172839506172839,41.97530864197531,0)" xlink:href="#ay"/><use transform="matrix(0.06172839506172839,0,0,0.06172839506172839,54.32098765432099,0)" xlink:href="#aA"/></g><g id="Q"><use transform="matrix(0.06172839506172839,0,0,0.06172839506172839,0,0)" xlink:href="#az"/><use transform="matrix(0.06172839506172839,0,0,0.06172839506172839,11.11111111111111,0)" xlink:href="#aA"/><use transform="matrix(0.06172839506172839,0,0,0.06172839506172839,23.45679012345679,0)" xlink:href="#at"/><use transform="matrix(0.06172839506172839,0,0,0.06172839506172839,35.80246913580247,0)" xlink:href="#ay"/><use transform="matrix(0.06172839506172839,0,0,0.06172839506172839,48.148148148148145,0)" xlink:href="#ar"/><use transform="matrix(0.06172839506172839,0,0,0.06172839506172839,53.02469135802469,0)" xlink:href="#az"/><use transform="matrix(0.06172839506172839,0,0,0.06172839506172839,64.1358024691358,0)" xlink:href="#ar"/><use transform="matrix(0.06172839506172839,0,0,0.06172839506172839,69.01234567901234,0)" xlink:href="#aA"/><use transform="matrix(0.06172839506172839,0,0,0.06172839506172839,81.35802469135803,0)" xlink:href="#at"/></g><g id="R"><use transform="matrix(0.06172839506172839,0,0,0.06172839506172839,0,0)" xlink:href="#aq"/><use transform="matrix(0.06172839506172839,0,0,0.06172839506172839,6.172839506172839,0)" xlink:href="#ar"/><use transform="matrix(0.06172839506172839,0,0,0.06172839506172839,11.049382716049383,0)" xlink:href="#au"/><use transform="matrix(0.06172839506172839,0,0,0.06172839506172839,23.395061728395063,0)" xlink:href="#aA"/></g><g id="S"><use transform="matrix(0.06172839506172839,0,0,0.06172839506172839,0,0)" xlink:href="#az"/><use transform="matrix(0.06172839506172839,0,0,0.06172839506172839,11.11111111111111,0)" xlink:href="#ax"/><use transform="matrix(0.06172839506172839,0,0,0.06172839506172839,23.45679012345679,0)" xlink:href="#aC"/><use transform="matrix(0.06172839506172839,0,0,0.06172839506172839,28.333333333333336,0)" xlink:href="#ar"/><use transform="matrix(0.06172839506172839,0,0,0.06172839506172839,33.20987654320988,0)" xlink:href="#aD"/><use transform="matrix(0.06172839506172839,0,0,0.06172839506172839,39.38271604938272,0)" xlink:href="#ar"/><use transform="matrix(0.06172839506172839,0,0,0.06172839506172839,44.25925925925927,0)" xlink:href="#az"/><use transform="matrix(0.06172839506172839,0,0,0.06172839506172839,55.37037037037038,0)" xlink:href="#ax"/><use transform="matrix(0.06172839506172839,0,0,0.06172839506172839,67.71604938271606,0)" xlink:href="#az"/><use transform="matrix(0.06172839506172839,0,0,0.06172839506172839,78.82716049382718,0)" xlink:href="#ar"/><use transform="matrix(0.06172839506172839,0,0,0.06172839506172839,83.70370370370372,0)" xlink:href="#aA"/><use transform="matrix(0.06172839506172839,0,0,0.06172839506172839,96.04938271604941,0)" xlink:href="#at"/></g><g id="T"><use transform="matrix(0.06172839506172839,0,0,0.06172839506172839,0,0)" xlink:href="#ay"/><use transform="matrix(0.06172839506172839,0,0,0.06172839506172839,12.345679012345679,0)" xlink:href="#as"/><use transform="matrix(0.06172839506172839,0,0,0.06172839506172839,24.691358024691358,0)" xlink:href="#aw"/><use transform="matrix(0.06172839506172839,0,0,0.06172839506172839,35.80246913580247,0)" xlink:href="#az"/><use transform="matrix(0.06172839506172839,0,0,0.06172839506172839,46.91358024691358,0)" xlink:href="#av"/><use transform="matrix(0.06172839506172839,0,0,0.06172839506172839,54.25925925925926,0)" xlink:href="#ar"/><use transform="matrix(0.06172839506172839,0,0,0.06172839506172839,59.135802469135804,0)" xlink:href="#au"/><use transform="matrix(0.06172839506172839,0,0,0.06172839506172839,71.48148148148148,0)" xlink:href="#az"/><use transform="matrix(0.06172839506172839,0,0,0.06172839506172839,82.5925925925926,0)" xlink:href="#ar"/><use transform="matrix(0.06172839506172839,0,0,0.06172839506172839,87.46913580246914,0)" xlink:href="#aA"/><use transform="matrix(0.06172839506172839,0,0,0.06172839506172839,99.81481481481482,0)" xlink:href="#at"/></g><g id="U"><use transform="matrix(0.06172839506172839,0,0,0.06172839506172839,0,0)" xlink:href="#az"/><use transform="matrix(0.06172839506172839,0,0,0.06172839506172839,11.11111111111111,0)" xlink:href="#aA"/><use transform="matrix(0.06172839506172839,0,0,0.06172839506172839,23.45679012345679,0)" xlink:href="#av"/><use transform="matrix(0.06172839506172839,0,0,0.06172839506172839,30.80246913580247,0)" xlink:href="#av"/><use transform="matrix(0.06172839506172839,0,0,0.06172839506172839,38.148148148148145,0)" xlink:href="#as"/><use transform="matrix(0.06172839506172839,0,0,0.06172839506172839,50.49382716049382,0)" xlink:href="#aA"/></g><path fill="#333" d="M177-190C167-65 218 103 67 71c-23-6-38-20-44-43l32-5c15 47 100 32 89-28v-30C133-14 115 1 83 1 29 1 15-40 15-95c0-56 16-97 71-98 29-1 48 16 59 35 1-10 0-23 2-32h30zM94-22c36 0 50-32 50-73 0-42-14-75-50-75-39 0-46 34-46 75s6 73 46 73" id="aI"/><g id="V"><use transform="matrix(0.06172839506172839,0,0,0.06172839506172839,0,0)" xlink:href="#ar"/><use transform="matrix(0.06172839506172839,0,0,0.06172839506172839,4.876543209876543,0)" xlink:href="#aG"/><use transform="matrix(0.06172839506172839,0,0,0.06172839506172839,23.33333333333333,0)" xlink:href="#ax"/><use transform="matrix(0.06172839506172839,0,0,0.06172839506172839,35.679012345679006,0)" xlink:href="#aI"/><use transform="matrix(0.06172839506172839,0,0,0.06172839506172839,48.02469135802468,0)" xlink:href="#as"/><use transform="matrix(0.06172839506172839,0,0,0.06172839506172839,60.37037037037036,0)" xlink:href="#at"/><use transform="matrix(0.06172839506172839,0,0,0.06172839506172839,72.71604938271604,0)" xlink:href="#as"/><use transform="matrix(0.06172839506172839,0,0,0.06172839506172839,85.06172839506172,0)" xlink:href="#aw"/></g><g id="W"><use transform="matrix(0.06172839506172839,0,0,0.06172839506172839,0,0)" xlink:href="#ay"/><use transform="matrix(0.06172839506172839,0,0,0.06172839506172839,12.345679012345679,0)" xlink:href="#ar"/><use transform="matrix(0.06172839506172839,0,0,0.06172839506172839,17.22222222222222,0)" xlink:href="#ax"/><use transform="matrix(0.06172839506172839,0,0,0.06172839506172839,29.5679012345679,0)" xlink:href="#aI"/><use transform="matrix(0.06172839506172839,0,0,0.06172839506172839,41.913580246913575,0)" xlink:href="#at"/><use transform="matrix(0.06172839506172839,0,0,0.06172839506172839,54.25925925925925,0)" xlink:href="#aA"/><use transform="matrix(0.06172839506172839,0,0,0.06172839506172839,66.60493827160494,0)" xlink:href="#aw"/><use transform="matrix(0.06172839506172839,0,0,0.06172839506172839,77.71604938271605,0)" xlink:href="#aq"/><use transform="matrix(0.06172839506172839,0,0,0.06172839506172839,83.88888888888889,0)" xlink:href="#ar"/><use transform="matrix(0.06172839506172839,0,0,0.06172839506172839,88.76543209876543,0)" xlink:href="#az"/><use transform="matrix(0.06172839506172839,0,0,0.06172839506172839,99.87654320987654,0)" xlink:href="#ax"/><use transform="matrix(0.06172839506172839,0,0,0.06172839506172839,112.22222222222223,0)" xlink:href="#aw"/></g><g id="X"><use transform="matrix(0.06172839506172839,0,0,0.06172839506172839,0,0)" xlink:href="#aD"/><use transform="matrix(0.06172839506172839,0,0,0.06172839506172839,6.172839506172839,0)" xlink:href="#aA"/><use transform="matrix(0.06172839506172839,0,0,0.06172839506172839,18.51851851851852,0)" xlink:href="#av"/><use transform="matrix(0.06172839506172839,0,0,0.06172839506172839,25.864197530864196,0)" xlink:href="#aG"/><use transform="matrix(0.06172839506172839,0,0,0.06172839506172839,44.32098765432099,0)" xlink:href="#aF"/><use transform="matrix(0.06172839506172839,0,0,0.06172839506172839,56.666666666666664,0)" xlink:href="#aC"/><use transform="matrix(0.06172839506172839,0,0,0.06172839506172839,61.54320987654321,0)" xlink:href="#ax"/><use transform="matrix(0.06172839506172839,0,0,0.06172839506172839,73.88888888888889,0)" xlink:href="#aw"/></g><g id="Y"><use transform="matrix(0.06172839506172839,0,0,0.06172839506172839,0,0)" xlink:href="#at"/><use transform="matrix(0.06172839506172839,0,0,0.06172839506172839,12.345679012345679,0)" xlink:href="#ar"/><use transform="matrix(0.06172839506172839,0,0,0.06172839506172839,17.22222222222222,0)" xlink:href="#aq"/><path fill="#333" d="M-1.1 1.54h25.6v1.63H-1.1z"/></g><g id="Z"><use transform="matrix(0.06172839506172839,0,0,0.06172839506172839,0,0)" xlink:href="#az"/><use transform="matrix(0.06172839506172839,0,0,0.06172839506172839,11.11111111111111,0)" xlink:href="#aA"/><use transform="matrix(0.06172839506172839,0,0,0.06172839506172839,23.45679012345679,0)" xlink:href="#ay"/><use transform="matrix(0.06172839506172839,0,0,0.06172839506172839,35.80246913580247,0)" xlink:href="#ar"/><use transform="matrix(0.06172839506172839,0,0,0.06172839506172839,40.67901234567901,0)" xlink:href="#aI"/><use transform="matrix(0.06172839506172839,0,0,0.06172839506172839,53.02469135802469,0)" xlink:href="#aA"/></g><g id="aa"><use transform="matrix(0.06172839506172839,0,0,0.06172839506172839,0,0)" xlink:href="#aE"/><use transform="matrix(0.06172839506172839,0,0,0.06172839506172839,12.345679012345679,0)" xlink:href="#ax"/><use transform="matrix(0.06172839506172839,0,0,0.06172839506172839,24.691358024691358,0)" xlink:href="#aH"/><use transform="matrix(0.06172839506172839,0,0,0.06172839506172839,37.03703703703704,0)" xlink:href="#ar"/><use transform="matrix(0.06172839506172839,0,0,0.06172839506172839,41.91358024691358,0)" xlink:href="#aC"/><use transform="matrix(0.06172839506172839,0,0,0.06172839506172839,46.79012345679013,0)" xlink:href="#ar"/><use transform="matrix(0.06172839506172839,0,0,0.06172839506172839,51.66666666666667,0)" xlink:href="#aq"/><use transform="matrix(0.06172839506172839,0,0,0.06172839506172839,57.83950617283951,0)" xlink:href="#ax"/><use transform="matrix(0.06172839506172839,0,0,0.06172839506172839,70.18518518518519,0)" xlink:href="#az"/><use transform="matrix(0.06172839506172839,0,0,0.06172839506172839,81.2962962962963,0)" xlink:href="#ar"/><use transform="matrix(0.06172839506172839,0,0,0.06172839506172839,86.17283950617285,0)" xlink:href="#aA"/><use transform="matrix(0.06172839506172839,0,0,0.06172839506172839,98.51851851851853,0)" xlink:href="#at"/></g><g id="ab"><use transform="matrix(0.06172839506172839,0,0,0.06172839506172839,0,0)" xlink:href="#az"/><use transform="matrix(0.06172839506172839,0,0,0.06172839506172839,11.11111111111111,0)" xlink:href="#ar"/><use transform="matrix(0.06172839506172839,0,0,0.06172839506172839,15.987654320987653,0)" xlink:href="#aF"/><use transform="matrix(0.06172839506172839,0,0,0.06172839506172839,28.333333333333332,0)" xlink:href="#ay"/><use transform="matrix(0.06172839506172839,0,0,0.06172839506172839,40.67901234567901,0)" xlink:href="#ax"/><use transform="matrix(0.06172839506172839,0,0,0.06172839506172839,53.02469135802469,0)" xlink:href="#ay"/></g></defs></g></svg>